<svg width="312" height="722" viewBox="0 0 312 722" fill="none" xmlns="http://www.w3.org/2000/svg">
<path fill-rule="evenodd" clip-rule="evenodd" d="M219.834 395.631C194.499 459.98 140.064 511.412 72.6897 526.878C8.84463 541.533 -52.2313 508.686 -105.266 470.258C-157.719 432.251 -204.982 384.368 -212.776 320.033C-221.207 250.437 -197.349 179.533 -146.305 131.474C-93.4704 81.7292 -19.4071 56.2137 51.5687 71.1473C119.915 85.5278 167.541 142.258 199.701 204.275C230.758 264.165 244.558 332.834 219.834 395.631Z" fill="white" fill-opacity="0.54"/>
<path fill-rule="evenodd" clip-rule="evenodd" d="M90.052 499.439C100.379 530.053 104.787 564.268 87.4404 591.531C69.5254 619.687 36.6104 636.196 3.23603 635.884C-27.3625 635.597 -51.1855 613.361 -70.9932 590.047C-89.4302 568.346 -103.228 542.555 -100.102 514.251C-96.8207 484.547 -80.0631 457.902 -54.6569 442.153C-28.2042 425.755 4.50904 420.011 33.4441 431.465C62.2927 442.886 80.1365 470.046 90.052 499.439Z" fill="white"/>
</svg>
