<svg width="423" height="510" viewBox="0 0 423 510" fill="none" xmlns="http://www.w3.org/2000/svg">
<path fill-rule="evenodd" clip-rule="evenodd" d="M341.784 325.992C273.754 273.803 231.067 191.348 235.665 105.766C240.023 24.6675 300.047 -36.893 363.973 -86.9624C427.199 -136.483 500.42 -176.443 579.756 -163.739C665.581 -149.997 741.927 -97.3277 781.754 -20.0667C822.979 59.9043 828.071 156.893 786.012 236.375C745.511 312.913 661.622 350.28 576.718 367.409C494.728 383.949 408.172 376.923 341.784 325.992Z" fill="white" fill-opacity="0.54"/>
<path fill-rule="evenodd" clip-rule="evenodd" d="M262.431 135.837C222.416 137.68 180.133 131.238 153.571 101.245C126.139 70.2699 117.715 25.3993 129.496 -14.2685C140.297 -50.637 174.94 -71.4278 209.496 -87.0645C241.661 -101.619 277.115 -109.247 309.778 -95.8463C344.057 -81.7825 370.083 -52.7034 380.168 -17.0414C390.669 20.0895 386.332 61.0398 362.79 91.6084C339.319 122.085 300.85 134.067 262.431 135.837Z" fill="white"/>
</svg>
