<svg width="154" height="154" viewBox="0 0 154 154" fill="none" xmlns="http://www.w3.org/2000/svg">
<g clip-path="url(#clip0_2:1047)">
<path d="M27.6394 150.704C26.5831 150.704 25.6272 149.979 25.3778 148.906L23.7662 141.974C23.4757 140.724 24.2535 139.475 25.5036 139.184C26.7536 138.893 28.0027 139.671 28.2933 140.921L29.9049 147.853C30.1954 149.103 29.4176 150.352 28.1676 150.643C27.9907 150.684 27.8136 150.704 27.6394 150.704Z" fill="#2B3890"/>
<path d="M126.361 150.704C126.187 150.704 126.01 150.684 125.832 150.643C124.582 150.352 123.805 149.103 124.095 147.853L125.706 140.921C125.997 139.671 127.246 138.893 128.496 139.184C129.746 139.474 130.524 140.724 130.234 141.974L128.622 148.905C128.373 149.979 127.417 150.704 126.361 150.704Z" fill="#2B3890"/>
<path d="M77.3431 40.6282C76.6664 40.6282 76.0233 40.3331 75.5817 39.8203L47.4548 7.13677C46.6174 6.16404 46.7275 4.69653 47.7002 3.85945C48.673 3.02208 50.1402 3.13216 50.9775 4.10519L77.3431 34.7419L103.709 4.10519C104.546 3.13246 106.014 3.02238 106.986 3.85945C107.959 4.69653 108.069 6.16404 107.231 7.13677L79.1045 39.8203C78.6629 40.3331 78.0199 40.6282 77.3431 40.6282V40.6282Z" fill="#3342AA"/>
<path d="M138.624 31.6864C97.5415 28.8702 56.4584 28.8702 15.3756 31.6864C8.7019 32.1439 3.27731 37.2812 2.49618 43.9249C-0.832264 72.244 -0.832264 100.563 2.49618 128.882C3.27701 135.526 8.7019 140.663 15.3753 141.121C56.4581 143.937 97.5412 143.937 138.624 141.121C145.298 140.663 150.722 135.526 151.503 128.882C154.832 100.563 154.832 72.244 151.503 43.9249C150.723 37.2812 145.298 32.1439 138.624 31.6864V31.6864Z" fill="#5766CB"/>
<path d="M18.6322 141.337C17.5491 141.268 16.4627 141.196 15.3762 141.121C8.70462 140.661 3.27913 135.523 2.49649 128.88C-0.831351 100.563 -0.831351 72.2419 2.49649 43.9246C3.27913 37.2812 8.70462 32.1436 15.3762 31.6867C16.4594 31.6115 17.5428 31.5396 18.6259 31.4707C14.4778 33.5996 11.4911 37.6821 10.9181 42.5503C7.48375 71.785 7.48375 101.02 10.9181 130.254C11.4911 135.123 14.4808 139.208 18.6322 141.337V141.337Z" fill="#3342AA"/>
<path d="M131.462 42.8288C95.1543 40.3227 58.846 40.3227 22.5381 42.8288C18.6105 43.0998 15.4036 46.0977 14.889 50.0009C11.6878 74.2686 11.6878 98.5362 14.889 122.804C15.4039 126.707 18.6105 129.705 22.5381 129.976C58.846 132.482 95.1543 132.482 131.462 129.976C135.39 129.705 138.597 126.707 139.111 122.804C142.313 98.5362 142.313 74.2686 139.111 50.0009C138.596 46.098 135.39 43.0998 131.462 42.8288V42.8288Z" fill="#BED8FB"/>
<path d="M31.012 130.515C28.185 130.352 25.3609 130.171 22.5372 129.977C18.6078 129.707 15.4021 126.708 14.8886 122.804C11.6859 98.5377 11.6859 74.2683 14.8886 50.0018C15.4021 46.0977 18.6078 43.1016 22.5369 42.8294C25.364 42.6354 28.191 42.4537 31.018 42.291C28.6229 43.5528 26.8916 45.9163 26.5193 48.7371C23.207 73.8487 23.207 98.957 26.5193 124.069C26.8919 126.886 28.6199 129.25 31.012 130.515V130.515Z" fill="#9DC6FB"/>
<path d="M77 134.172C58.7501 134.172 40.5002 133.546 22.3778 132.295C17.3596 131.949 13.241 128.085 12.5847 123.109C9.37175 98.7527 9.37175 74.0537 12.5847 49.6979C13.2413 44.7212 17.3599 40.8577 22.3778 40.5112C58.6223 38.0093 95.3774 38.0093 131.622 40.5112C136.64 40.8577 140.759 44.7212 141.415 49.6979C144.628 74.0537 144.628 98.7527 141.415 123.109C140.759 128.085 136.64 131.949 131.622 132.295C113.5 133.546 95.2499 134.172 77 134.172ZM77 43.2823C58.8572 43.2823 40.7141 43.904 22.6982 45.1477C19.8765 45.3426 17.5614 47.5116 17.1927 50.3055C14.033 74.2579 14.033 98.5481 17.1927 122.501C17.5611 125.294 19.8765 127.463 22.6982 127.658C58.7299 130.146 95.2698 130.146 131.302 127.658C134.123 127.464 136.439 125.294 136.807 122.501C139.967 98.5481 139.967 74.2582 136.807 50.3055C136.439 47.5116 134.123 45.3426 131.302 45.1477C113.286 43.904 95.1428 43.2823 77 43.2823V43.2823Z" fill="#3342AA"/>
<path d="M96.6667 82.7878C99.3334 84.3274 99.3334 88.1764 96.6667 89.716L67.033 106.825C64.3663 108.365 61.033 106.44 61.033 103.361L61.033 69.1429C61.033 66.0637 64.3663 64.1392 67.033 65.6788L96.6667 82.7878Z" fill="#E43030"/>
</g>
<defs>
<clipPath id="clip0_2:1047">
<rect width="154" height="154" fill="white"/>
</clipPath>
</defs>
</svg>
