<svg width="1920" height="252" viewBox="0 0 1920 252" fill="none" xmlns="http://www.w3.org/2000/svg">
    <path fill-rule="evenodd" clip-rule="evenodd" d="M381.02 524.871C451.816 462.743 492.646 369.272 481.416 275.793C470.774 187.211 400.525 124.072 326.831 73.8106C253.944 24.1004 170.792 -14.4064 84.745 5.25636C-8.33879 26.5272 -88.2175 89.7826 -126.287 177.354C-165.692 267.996 -164.259 374.68 -112.408 458.763C-62.477 539.732 32.1814 574.626 126.489 587.261C217.56 599.463 311.931 585.501 381.02 524.871Z" fill="white" fill-opacity="0.54"/>
    <path fill-rule="evenodd" clip-rule="evenodd" d="M1624.29 852.789C1677.97 657.2 1640.63 440.761 1509.68 285.991C1385.6 139.328 1184.48 109.035 992.425 105.98C802.475 102.959 607.343 132.244 475.926 269.549C333.762 418.083 265.086 626.46 300.393 829.019C336.938 1038.68 465.916 1228.8 658.771 1318.55C844.482 1404.98 1056.02 1355.56 1240.56 1266.54C1418.76 1180.58 1571.9 1043.66 1624.29 852.789Z" fill="white" fill-opacity="0.54"/>
    <path fill-rule="evenodd" clip-rule="evenodd" d="M483.048 396.574C527.043 395.7 572.926 385.581 599.874 350.782C627.703 314.845 633.693 265.05 617.91 222.42C603.44 183.335 563.962 163.05 524.952 148.409C488.641 134.781 449.226 128.984 414.392 146.035C377.834 163.931 351.408 197.688 342.932 237.509C334.107 278.97 341.822 323.545 369.838 355.35C397.771 387.061 440.805 397.412 483.048 396.574Z" fill="white"/>
    <path fill-rule="evenodd" clip-rule="evenodd" d="M1581.24 567.35C1519.62 496.104 1491.99 397.919 1515.93 306.861C1538.61 220.574 1616.85 167.66 1696.74 127.974C1775.75 88.7238 1863.4 61.9779 1945.94 93.2495C2035.23 127.078 2105.68 200.686 2131.39 292.648C2158 387.837 2141.95 493.317 2079.07 569.5C2018.51 642.861 1919.96 664.45 1824.81 664.039C1732.93 663.643 1641.36 636.877 1581.24 567.35Z" fill="white" fill-opacity="0.54"/>
    <path fill-rule="evenodd" clip-rule="evenodd" d="M1471.67 348.604C1429.36 360.725 1382.54 364.565 1346.54 339.245C1309.36 313.096 1288.97 267.273 1291.5 221.885C1293.82 180.273 1325.57 149.262 1358.54 123.783C1389.23 100.066 1425.19 82.9196 1463.5 88.9574C1503.71 95.294 1538.9 119.773 1558.73 155.332C1579.37 192.356 1585.13 237.226 1567.72 275.872C1550.36 314.401 1512.28 336.966 1471.67 348.604Z" fill="white"/>
</svg>
