<svg width="1836" height="147" viewBox="0 0 1836 147" fill="none" xmlns="http://www.w3.org/2000/svg">
    <path fill-rule="evenodd" clip-rule="evenodd" d="M1209.99 326.507C1222.53 430.028 1177.32 541.365 1033.68 600.775C892.433 659.198 703.246 634.261 532.62 606.676C364.216 579.451 183.217 543.419 109.123 451.303C34.6495 358.714 94.7171 254.261 179.122 167.195C258.428 85.3885 382.095 17.9416 543.367 3.36911C699.818 -10.7678 848.801 35.5641 972.464 95.5086C1097.5 156.117 1198.71 233.435 1209.99 326.507Z" fill="#F1EBFE"/>
    <path fill-rule="evenodd" clip-rule="evenodd" d="M552.986 369.507C565.529 473.028 520.317 584.365 376.681 643.775C235.433 702.198 46.2461 677.261 -124.381 649.676C-292.785 622.451 -473.783 586.419 -547.877 494.303C-622.351 401.714 -562.283 297.261 -477.878 210.195C-398.572 128.388 -274.905 60.9416 -113.633 46.3691C42.818 32.2322 191.801 78.5641 315.464 138.509C440.496 199.117 541.71 276.435 552.986 369.507Z" fill="#F1EBFE"/>
    <path fill-rule="evenodd" clip-rule="evenodd" d="M1833.99 354.507C1846.53 458.028 1801.32 569.365 1657.68 628.775C1516.43 687.198 1327.25 662.261 1156.62 634.676C988.216 607.451 807.217 571.419 733.123 479.303C658.649 386.714 718.717 282.261 803.122 195.195C882.428 113.388 1006.1 45.9416 1167.37 31.3691C1323.82 17.2322 1472.8 63.5641 1596.46 123.509C1721.5 184.117 1822.71 261.435 1833.99 354.507Z" fill="#F1EBFE"/>
</svg>
