<svg width="157" height="120" viewBox="0 0 157 120" fill="none" xmlns="http://www.w3.org/2000/svg">
<path d="M132.912 71.9043C132.289 71.9043 131.678 71.9383 131.066 71.9836C131.072 71.7911 131.072 71.5985 131.072 71.4117C131.072 52.8787 117.29 37.5732 99.4136 35.1667C99.4192 35.0591 99.4306 34.9515 99.4306 34.8383C99.4306 30.6481 96.0331 27.2506 91.8429 27.2506C90.7954 27.2506 89.7988 27.4602 88.8985 27.8452C80.4559 11.4299 63.3611 0.207031 43.639 0.207031C20.3269 0.207031 0.678353 15.8862 -5.33511 37.2787C-7.18105 36.7012 -9.15157 36.3954 -11.19 36.3954C-22.0901 36.3954 -30.9291 45.2288 -30.9291 56.1345C-30.9291 59.4584 -30.1024 62.5897 -28.6472 65.3416C-43.2618 65.6813 -55 77.6233 -55 92.3172C-55 107.221 -42.9164 119.304 -28.0074 119.304H132.912C146.004 119.304 156.615 108.693 156.615 95.6071C156.615 82.5156 146.004 71.9043 132.912 71.9043Z" fill="white"/>
</svg>
