<svg width="250" height="308" viewBox="0 0 250 308" fill="none" xmlns="http://www.w3.org/2000/svg">
<path d="M272.118 171.295C271.216 171.295 270.331 171.344 269.445 171.41C269.453 171.13 269.453 170.851 269.453 170.579C269.453 143.654 249.495 121.418 223.608 117.921C223.617 117.765 223.633 117.609 223.633 117.444C223.633 111.357 218.713 106.421 212.645 106.421C211.128 106.421 209.685 106.725 208.381 107.284C196.155 83.4358 171.4 67.1309 142.84 67.1309C109.082 67.1309 80.6286 89.91 71.9204 120.99C69.2473 120.151 66.3937 119.706 63.4418 119.706C47.6572 119.706 34.8573 132.54 34.8573 148.384C34.8573 153.213 36.0545 157.762 38.1618 161.76C16.9982 162.254 0 179.604 0 200.951C0 222.604 17.4984 240.159 39.0884 240.159H272.118C291.076 240.159 306.443 224.742 306.443 205.731C306.443 186.711 291.076 171.295 272.118 171.295Z" fill="white"/>
</svg>
