<svg width="130" height="131" viewBox="0 0 130 131" fill="none" xmlns="http://www.w3.org/2000/svg">
<path d="M127.133 91.3812C128.073 89.7526 128.611 87.8623 128.611 85.843C128.611 79.7078 123.64 74.7333 117.501 74.7333C116.399 74.7333 115.335 74.8991 114.329 75.1976C114.461 74.2063 114.535 73.1967 114.535 72.1723C114.535 63.502 109.572 55.996 102.335 52.3333C103.329 50.1777 103.886 47.7789 103.886 45.2511C103.886 35.9211 96.3209 28.3525 86.9873 28.3525C80.1815 28.3525 74.3153 32.38 71.6401 38.1762C69.3039 35.8401 66.076 34.3956 62.5128 34.3956C56.6098 34.3956 51.6352 38.3642 50.1024 43.7735C48.5068 43.464 46.8597 43.3018 45.1721 43.3018C30.9893 43.3018 19.4926 54.7984 19.4926 68.9813C19.4926 70.8605 19.6953 72.6919 20.0786 74.4569C19.3711 74.3206 18.6451 74.2469 17.8971 74.2469C11.6256 74.2469 6.54423 79.3282 6.54423 85.5998C6.54423 87.0663 6.82429 88.4629 7.32911 89.7526C7.07117 89.7194 6.80953 89.701 6.54423 89.701C2.92943 89.701 0 92.6304 0 96.2452C0 99.8563 2.92943 102.782 6.54423 102.782H122.759C126.371 102.782 129.3 99.8563 129.3 96.2452C129.3 94.3107 128.464 92.5788 127.133 91.3812Z" fill="white"/>
<path d="M47.4318 59.1965C44.2728 59.1965 41.1948 60.4115 41.1948 62.1935C41.1948 63.0035 42.0318 63.8675 42.9498 63.8675C43.8948 63.8675 44.7588 62.5175 46.9188 62.5175C48.0798 62.5175 48.8088 62.8685 48.8088 63.7595C48.8088 64.5425 48.2688 65.1095 47.1348 65.1095H46.4058C45.5958 65.1095 44.8668 65.3525 44.8668 66.3785C44.8668 67.3235 45.2448 67.7555 46.4058 67.7555H47.3508C48.5928 67.7555 49.2678 68.1875 49.2678 69.0785C49.2678 70.2935 48.1608 70.9685 46.9188 70.9685C43.6248 70.9685 44.2998 69.0245 42.1938 69.0245C41.2758 69.0245 40.6008 69.7265 40.6008 70.6985C40.6008 72.5615 43.3818 74.2895 46.7298 74.2895C50.6988 74.2895 53.5068 72.3725 53.5068 69.4565C53.5068 68.0525 52.3728 66.5945 50.5638 66.1895C51.8868 65.5685 53.0478 64.5155 53.0478 62.9225C53.0478 60.4385 50.8068 59.1965 47.4318 59.1965ZM62.1253 63.0845C63.6643 63.0845 64.9063 64.6235 64.9063 66.7025C64.9063 68.8085 63.6913 70.4015 62.1253 70.4015C60.5593 70.4015 59.3713 68.8625 59.3713 66.7025C59.3713 64.5965 60.5863 63.0845 62.1253 63.0845ZM65.0143 72.6425C65.4733 73.6685 66.0943 74.1275 67.0393 74.1275C68.4703 74.1275 69.1453 73.1015 69.1453 71.0225V62.4635C69.1453 60.3845 68.4973 59.3855 67.0393 59.3855C66.1753 59.3855 65.5003 59.8715 65.0143 60.7355C64.1503 59.7095 63.0703 59.1965 61.6123 59.1965C57.9943 59.1965 54.9973 62.4365 54.9973 66.7565C54.9973 71.2115 57.9673 74.2895 61.4503 74.2895C62.9083 74.2895 64.1503 73.6955 65.0143 72.6425ZM82.1257 54.7415C80.0467 54.7415 79.0207 55.3895 79.0207 56.7665C79.0207 58.0895 80.0467 58.7915 81.9637 58.7915H82.3957V71.0225C82.3957 73.1015 83.0707 74.1275 84.5827 74.1275C86.0947 74.1275 86.7697 73.1015 86.7697 71.0225V57.8465C86.7697 55.6865 86.1487 54.7415 84.3127 54.7415H82.1257ZM38.9666 81.3145C38.1506 81.3145 37.6386 81.7145 37.5266 83.1545L37.1746 87.6185C37.1426 88.0505 37.1106 88.4505 37.1106 88.5625C37.1106 89.5385 37.4786 90.0505 38.2306 90.0505C39.0626 90.0505 39.4946 89.5065 39.6066 88.2105L39.8306 85.6025L41.6546 88.9785C41.9586 89.5385 42.4386 90.0505 42.8546 90.0505C43.2706 90.0505 43.7666 89.6025 44.0546 89.0585L45.9106 85.6025L46.1186 88.2105C46.2146 89.4745 46.6626 90.0505 47.4946 90.0505C48.2466 90.0505 48.6146 89.5385 48.6146 88.5465C48.6146 88.4345 48.5826 87.9705 48.5506 87.6025L48.2146 83.1545C48.1026 81.6025 47.5746 81.3145 46.7586 81.3145C46.3266 81.3145 45.8786 81.4905 45.5746 82.0505L42.9346 86.8185L40.2626 82.2265C39.8466 81.5065 39.3986 81.3145 38.9666 81.3145ZM51.4401 81.3145C50.5761 81.3145 50.1921 81.9225 50.1921 83.1545V88.2105C50.1921 89.4905 50.6241 90.0505 51.4401 90.0505C51.8561 90.0505 52.1441 89.9225 52.3681 89.6025L55.2801 85.5545V88.2105C55.2801 89.4905 55.6961 90.0505 56.5281 90.0505C57.3601 90.0505 57.7921 89.4105 57.7921 88.2105V83.1545C57.7921 81.8745 57.3281 81.3145 56.5281 81.3145C56.0961 81.3145 55.6641 81.4745 55.2801 82.0505L52.7041 85.9065V83.1545C52.7041 81.8745 52.2561 81.3145 51.4401 81.3145ZM62.0323 84.4665V83.1385C62.0323 81.9705 61.7763 81.3145 60.8483 81.3145C59.9363 81.3145 59.5203 81.9225 59.5203 83.1545V88.2105C59.5203 89.4905 59.9523 90.0505 60.7682 90.0505C61.6323 90.0505 62.0323 89.3945 62.0323 88.1945V86.4825H64.6403V88.2105C64.6403 89.4905 65.0563 90.0505 65.8883 90.0505C66.7523 90.0505 67.1523 89.4105 67.1523 88.2105V83.1545C67.1523 81.8745 66.7362 81.3145 65.9203 81.3145C65.0563 81.3145 64.6403 81.9225 64.6403 83.1545V84.4665H62.0323ZM69.3276 81.3145C68.6396 81.3145 68.0956 81.8585 68.0956 82.5625C68.0956 82.7705 68.1276 83.0265 68.2396 83.2665L70.7836 89.2025L69.7436 91.4585C69.5996 91.7785 69.5356 92.0505 69.5356 92.3225C69.5356 93.0585 69.9996 93.5385 70.7836 93.5385C71.3436 93.5385 71.6156 93.1705 71.8876 92.5145L75.7276 83.3945C75.8716 83.0585 75.9356 82.7385 75.9356 82.5145C75.9356 81.7785 75.4556 81.3145 74.6876 81.3145C74.1756 81.3145 73.8556 81.6345 73.5836 82.3225L72.0316 86.3385L70.6076 82.5305C70.3196 81.7465 70.0316 81.3145 69.3276 81.3145ZM77.959 81.4265C76.951 81.4265 76.535 81.7145 76.535 82.4985C76.535 83.2025 76.887 83.5865 77.991 83.5865H79.111V88.2105C79.111 89.4905 79.559 90.0505 80.391 90.0505C81.255 90.0505 81.623 89.4585 81.623 88.2105V83.5865H82.679C83.783 83.5865 84.215 83.2025 84.215 82.4985C84.215 81.7145 83.783 81.4265 82.695 81.4265H77.959ZM85.9214 81.3145C85.2334 81.3145 84.6894 81.8585 84.6894 82.5625C84.6894 82.7705 84.7214 83.0265 84.8334 83.2665L87.3774 89.2025L86.3374 91.4585C86.1934 91.7785 86.1294 92.0505 86.1294 92.3225C86.1294 93.0585 86.5934 93.5385 87.3774 93.5385C87.9374 93.5385 88.2094 93.1705 88.4814 92.5145L92.3214 83.3945C92.4654 83.0585 92.5294 82.7385 92.5294 82.5145C92.5294 81.7785 92.0494 81.3145 91.2814 81.3145C90.7694 81.3145 90.4494 81.6345 90.1774 82.3225L88.6254 86.3385L87.2014 82.5305C86.9134 81.7465 86.6254 81.3145 85.9214 81.3145Z" fill="#3037E4"/>
</svg>
