<svg width="308" height="678" viewBox="0 0 308 678" fill="none" xmlns="http://www.w3.org/2000/svg">
<path fill-rule="evenodd" clip-rule="evenodd" d="M254.73 332.582C240.874 400.336 196.126 460.386 132.429 487.241C72.0684 512.689 6.24227 490.869 -52.6256 462.164C-110.848 433.774 -165.662 394.761 -184.435 332.735C-204.744 265.636 -193.474 191.68 -151.484 135.536C-108.021 77.424 -39.4688 39.5163 33.019 41.9841C102.822 44.3604 159.519 92.0256 201.894 147.567C242.814 201.202 268.252 266.462 254.73 332.582Z" fill="white" fill-opacity="0.54"/>
<path fill-rule="evenodd" clip-rule="evenodd" d="M144.798 457.218C160.251 485.592 170.494 518.533 158.11 548.38C145.32 579.204 115.746 601.144 82.8177 606.592C52.6283 611.588 25.3271 593.794 1.79496 574.245C-20.1088 556.05 -38.1484 533.025 -39.9508 504.606C-41.8423 474.782 -29.9316 445.646 -7.6227 425.75C15.6052 405.035 46.8374 393.735 77.3145 400.027C107.7 406.3 129.962 429.976 144.798 457.218Z" fill="white"/>
</svg>
