<svg width="349" height="678" viewBox="0 0 349 678" fill="none" xmlns="http://www.w3.org/2000/svg">
<path fill-rule="evenodd" clip-rule="evenodd" d="M524.73 332.582C510.874 400.336 466.126 460.386 402.429 487.241C342.068 512.689 276.242 490.869 217.374 462.164C159.152 433.774 104.338 394.761 85.5647 332.735C65.2563 265.636 76.5263 191.68 118.516 135.536C161.979 77.424 230.531 39.5163 303.019 41.9841C372.822 44.3604 429.519 92.0256 471.894 147.567C512.814 201.202 538.252 266.462 524.73 332.582Z" fill="white" fill-opacity="0.54"/>
<path fill-rule="evenodd" clip-rule="evenodd" d="M414.798 457.218C430.251 485.592 440.494 518.533 428.11 548.38C415.32 579.204 385.746 601.144 352.818 606.592C322.628 611.588 295.327 593.794 271.795 574.245C249.891 556.05 231.852 533.025 230.049 504.606C228.158 474.782 240.068 445.646 262.377 425.75C285.605 405.035 316.837 393.735 347.315 400.027C377.7 406.3 399.962 429.976 414.798 457.218Z" fill="white"/>
</svg>
