<svg width="224" height="514" viewBox="0 0 224 514" fill="none" xmlns="http://www.w3.org/2000/svg">
    <path fill-rule="evenodd" clip-rule="evenodd" d="M217.937 128.363C231.19 177.153 221.741 231.08 188.997 269.574C157.969 306.051 107.817 313.47 59.941 314.105C12.59 314.733 -36.0315 307.305 -68.6997 272.992C-104.039 235.874 -121.021 183.886 -112.087 133.417C-102.84 81.1778 -70.5641 33.871 -22.4319 11.6261C23.9174 -9.79478 76.6157 2.66204 122.557 24.9736C166.921 46.5194 205.004 80.7495 217.937 128.363Z" fill="white" fill-opacity="0.54"/>
    <path d="M134.459 379.07C133.566 379.07 132.689 379.119 131.812 379.184C131.82 378.908 131.82 378.631 131.82 378.364C131.82 351.788 112.057 329.84 86.4232 326.39C86.4314 326.235 86.4476 326.081 86.4476 325.919C86.4476 319.91 81.5758 315.038 75.5672 315.038C74.0651 315.038 72.6361 315.339 71.345 315.891C59.2386 292.352 34.7254 276.259 6.44457 276.259C-26.9841 276.259 -55.1593 298.742 -63.7824 329.418C-66.4294 328.59 -69.2551 328.152 -72.1782 328.152C-87.8085 328.152 -100.483 340.818 -100.483 356.457C-100.483 361.223 -99.2978 365.713 -97.2111 369.659C-118.168 370.146 -135 387.271 -135 408.341C-135 429.712 -117.673 447.04 -96.2936 447.04H134.459C153.232 447.04 168.448 431.823 168.448 413.059C168.448 394.286 153.232 379.07 134.459 379.07Z" fill="#B7D4FF"/>
</svg>
