<svg width="330" height="543" viewBox="0 0 330 543" fill="none" xmlns="http://www.w3.org/2000/svg">
    <path fill-rule="evenodd" clip-rule="evenodd" d="M423.522 186.744C436.775 235.534 427.326 289.461 394.582 327.955C363.554 364.432 313.402 371.851 265.526 372.486C218.175 373.114 169.553 365.686 136.885 331.373C101.546 294.255 84.5637 242.267 93.4978 191.798C102.745 139.559 135.021 92.2518 183.153 70.007C229.502 48.5861 282.201 61.0429 328.142 83.3544C372.506 104.9 410.589 139.13 423.522 186.744Z" fill="white" fill-opacity="0.54"/>
    <path fill-rule="evenodd" clip-rule="evenodd" d="M159.423 31.4383C138.47 20.5376 114.249 13.5077 92.6054 22.9744C70.2526 32.7512 54.6272 54.6726 51.1019 78.8165C47.8699 100.952 61.255 120.66 75.8705 137.589C89.4746 153.347 106.555 166.213 127.352 167.136C149.178 168.104 170.309 158.993 184.541 142.411C199.36 125.145 207.186 102.159 202.164 79.9701C197.156 57.8472 179.542 41.9047 159.423 31.4383Z" fill="white"/>
    <path d="M254.412 458.669C253.854 458.669 253.306 458.7 252.758 458.74C252.763 458.568 252.763 458.395 252.763 458.228C252.763 441.618 240.411 427.901 224.39 425.744C224.395 425.647 224.405 425.551 224.405 425.45C224.405 421.694 221.36 418.649 217.605 418.649C216.666 418.649 215.773 418.837 214.966 419.182C207.399 404.47 192.078 394.412 174.403 394.412C153.51 394.412 135.9 408.464 130.511 427.637C128.857 427.119 127.091 426.845 125.264 426.845C115.495 426.845 107.573 434.762 107.573 444.536C107.573 447.515 108.314 450.321 109.618 452.787C96.52 453.092 86 463.795 86 476.964C86 490.321 96.8296 501.15 110.192 501.15H254.412C266.145 501.15 275.655 491.64 275.655 479.912C275.655 468.179 266.145 458.669 254.412 458.669Z" fill="#B7D4FF"/>
</svg>
