<svg width="289" height="651" viewBox="0 0 289 651" fill="none" xmlns="http://www.w3.org/2000/svg">
    <path fill-rule="evenodd" clip-rule="evenodd" d="M724.881 83.2598C727.115 177.425 685.993 270.768 609.609 325.813C537.227 377.974 443.196 369.048 356.307 348.864C270.371 328.902 185.725 293.8 141.918 217.173C94.5286 134.28 86.9731 32.6691 125.623 -54.6475C165.628 -145.027 245.092 -216.223 342.074 -235.016C435.463 -253.114 525.243 -207.099 598.408 -146.268C669.061 -87.5243 722.7 -8.63411 724.881 83.2598Z" fill="white" fill-opacity="0.54"/>
    <path fill-rule="evenodd" clip-rule="evenodd" d="M247.799 539.19C248.685 576.532 232.378 613.547 202.088 635.376C173.384 656.06 136.096 652.521 101.64 644.517C67.5612 636.601 33.9947 622.681 16.6228 592.294C-2.16974 559.422 -5.16593 519.128 10.1607 484.502C26.025 448.662 57.5369 420.429 95.9955 412.976C133.029 405.799 168.632 424.047 197.646 448.17C225.664 471.465 246.935 502.749 247.799 539.19Z" fill="white" fill-opacity="0.54"/>
</svg>
