<svg width="425" height="933" viewBox="0 0 425 933" fill="none" xmlns="http://www.w3.org/2000/svg">
    <path d="M190.729 37.0641C190.412 37.0641 190.1 37.0814 189.789 37.1045C189.791 37.0064 189.791 36.9083 189.791 36.8131C189.791 27.3718 182.77 19.5747 173.664 18.3487C173.666 18.2939 173.672 18.2391 173.672 18.1814C173.672 16.0468 171.941 14.316 169.807 14.316C169.273 14.316 168.765 14.4227 168.307 14.6189C164.006 6.25638 155.297 0.539062 145.25 0.539062C133.374 0.539062 123.364 8.52657 120.301 19.4247C119.361 19.1304 118.357 18.9747 117.318 18.9747C111.765 18.9747 107.263 23.4747 107.263 29.0304C107.263 30.7237 107.684 32.3189 108.425 33.7208C100.98 33.8939 95 39.9776 95 47.4631C95 55.0554 101.156 61.2112 108.751 61.2112H190.729C197.398 61.2112 202.804 55.8054 202.804 49.1391C202.804 42.4699 197.398 37.0641 190.729 37.0641Z" fill="white"/>
    <path d="M422.133 175.443C423.073 173.814 423.611 171.924 423.611 169.904C423.611 163.769 418.64 158.795 412.501 158.795C411.399 158.795 410.335 158.961 409.329 159.259C409.461 158.268 409.535 157.258 409.535 156.234C409.535 147.563 404.572 140.058 397.335 136.395C398.329 134.239 398.886 131.84 398.886 129.313C398.886 119.983 391.321 112.414 381.987 112.414C375.181 112.414 369.315 116.442 366.64 122.238C364.304 119.902 361.076 118.457 357.513 118.457C351.61 118.457 346.635 122.426 345.102 127.835C343.507 127.525 341.86 127.363 340.172 127.363C325.989 127.363 314.493 138.86 314.493 153.043C314.493 154.922 314.695 156.753 315.079 158.518C314.371 158.382 313.645 158.308 312.897 158.308C306.626 158.308 301.544 163.39 301.544 169.661C301.544 171.128 301.824 172.524 302.329 173.814C302.071 173.781 301.81 173.762 301.544 173.762C297.929 173.762 295 176.692 295 180.307C295 183.918 297.929 186.844 301.544 186.844H417.759C421.371 186.844 424.3 183.918 424.3 180.307C424.3 178.372 423.464 176.64 422.133 175.443Z" fill="white" fill-opacity="0.44"/>
    <path fill-rule="evenodd" clip-rule="evenodd" d="M230.881 449.26C233.115 543.425 191.993 636.768 115.609 691.813C43.2266 743.974 -50.8038 735.048 -137.693 714.864C-223.629 694.902 -308.275 659.8 -352.082 583.173C-399.471 500.28 -407.027 398.669 -368.377 311.352C-328.372 220.973 -248.908 149.777 -151.926 130.984C-58.5368 112.886 31.2428 158.901 104.408 219.732C175.061 278.476 228.7 357.366 230.881 449.26Z" fill="white" fill-opacity="0.54"/>
    <path fill-rule="evenodd" clip-rule="evenodd" d="M122.889 648.192C152.042 681.154 175.67 721.766 168.317 765.16C160.722 809.974 128.141 848.104 86.0866 865.362C47.53 881.186 5.86902 865.876 -31.3227 847.089C-65.9407 829.603 -96.8993 804.529 -107.944 767.351C-119.536 728.333 -112.595 686.028 -89.0365 652.824C-64.5076 618.252 -26.4862 593.741 15.8891 592.814C58.1377 591.891 94.8984 616.544 122.889 648.192Z" fill="white"/>
    <path fill-rule="evenodd" clip-rule="evenodd" d="M113.088 356.713C129.235 356.991 146.085 360.66 156.009 373.405C166.258 386.567 168.504 404.837 162.754 420.498C157.481 434.856 143.012 442.34 128.709 447.751C115.396 452.788 100.936 454.954 88.1348 448.73C74.7003 442.198 64.9686 429.835 61.819 415.228C58.5397 400.02 61.3277 383.653 71.5791 371.953C81.7998 360.288 97.5836 356.447 113.088 356.713Z" fill="#E76EB7"/>
    <path fill-rule="evenodd" clip-rule="evenodd" d="M240.335 104.449C247.403 104.571 254.779 106.177 259.124 111.756C263.61 117.518 264.594 125.516 262.076 132.372C259.768 138.657 253.434 141.933 247.173 144.302C241.345 146.507 235.015 147.455 229.411 144.731C223.53 141.871 219.27 136.459 217.891 130.065C216.456 123.407 217.676 116.243 222.164 111.121C226.638 106.014 233.548 104.333 240.335 104.449Z" fill="#E76EB7"/>
</svg>
