<svg width="815" height="527" viewBox="0 0 815 527" fill="none" xmlns="http://www.w3.org/2000/svg">
    <path fill-rule="evenodd" clip-rule="evenodd" d="M534.431 66.6884C605.392 128.628 646.47 221.991 635.489 315.499C625.082 404.109 555.002 467.435 481.441 517.892C408.687 567.795 325.638 606.523 239.538 587.089C146.398 566.066 66.3518 503.023 28.0495 415.553C-11.5963 325.016 -10.4471 218.329 41.1808 134.108C90.8963 53.0062 185.462 17.8611 279.735 4.97543C370.773 -7.46801 465.181 6.24273 534.431 66.6884Z" fill="#F091CA"/>
    <path fill-rule="evenodd" clip-rule="evenodd" d="M670.425 302.591C714.423 303.347 760.333 313.345 787.373 348.071C815.298 383.934 821.419 433.713 805.75 476.385C791.384 515.508 751.96 535.898 712.989 550.643C676.714 564.367 637.315 570.269 602.436 553.31C565.83 535.512 539.314 501.825 530.733 462.027C521.797 420.589 529.394 375.995 557.326 344.115C585.175 312.33 628.181 301.864 670.425 302.591Z" fill="#E76EB7"/>
</svg>
