<svg width="375" height="708" viewBox="0 0 375 708" fill="none" xmlns="http://www.w3.org/2000/svg">
    <path fill-rule="evenodd" clip-rule="evenodd" d="M373.98 59.7475C437.797 115.464 474.885 199.28 465.271 283.094C456.161 362.518 393.452 419.119 327.589 464.173C262.447 508.733 188.042 543.247 110.752 525.603C27.1425 506.517 -44.8278 449.787 -79.4111 371.263C-115.208 289.984 -114.448 194.328 -68.3458 118.945C-23.9518 46.3531 60.7938 15.0813 145.334 3.76713C226.973 -7.15876 311.702 5.37442 373.98 59.7475Z" fill="#F091CA"/>
    <path fill-rule="evenodd" clip-rule="evenodd" d="M78.0355 446.125C122.033 446.882 167.943 456.879 194.983 491.606C222.908 527.469 229.029 577.248 213.36 619.92C198.995 659.043 159.57 679.432 120.599 694.177C84.3246 707.902 44.9254 713.804 10.0458 696.845C-26.5595 679.047 -53.0754 645.36 -61.6572 605.562C-70.5925 564.124 -62.9959 519.529 -35.0638 487.649C-7.21533 455.865 35.7911 445.399 78.0355 446.125Z" fill="#E76EB7"/>
</svg>
