<svg width="260" height="948" viewBox="0 0 260 948" fill="none" xmlns="http://www.w3.org/2000/svg">
    <path d="M197.684 70.0749C197.314 70.0749 196.95 70.0951 196.587 70.122C196.59 70.0076 196.59 69.8932 196.59 69.7821C196.59 58.7672 188.399 49.6706 177.774 48.2403C177.777 48.1764 177.784 48.1124 177.784 48.0451C177.784 45.5547 175.765 43.5355 173.275 43.5355C172.652 43.5355 172.06 43.66 171.525 43.8889C166.507 34.1326 156.347 27.4624 144.625 27.4624C130.77 27.4624 119.092 36.7812 115.518 49.4956C114.421 49.1523 113.25 48.9706 112.038 48.9706C105.56 48.9706 100.306 54.2206 100.306 60.7023C100.306 62.6778 100.798 64.5389 101.663 66.1744C92.9764 66.3764 86 73.474 86 82.2072C86 91.0649 93.1817 98.2466 102.043 98.2466H197.684C205.465 98.2466 211.771 91.9399 211.771 84.1624C211.771 76.3817 205.465 70.0749 197.684 70.0749Z" fill="white"/>
    <path fill-rule="evenodd" clip-rule="evenodd" d="M690.881 666.26C693.115 760.425 651.993 853.768 575.609 908.813C503.227 960.974 409.196 952.048 322.307 931.864C236.371 911.902 151.725 876.8 107.918 800.173C60.5286 717.28 52.9731 615.669 91.6226 528.352C131.628 437.973 211.092 366.777 308.074 347.984C401.463 329.886 491.243 375.901 564.408 436.732C635.061 495.476 688.7 574.366 690.881 666.26Z" fill="white" fill-opacity="0.54"/>
    <path fill-rule="evenodd" clip-rule="evenodd" d="M282.332 267.642C249.285 238.587 208.603 215.078 165.231 222.559C120.439 230.285 82.4056 262.978 65.2706 305.083C49.5608 343.686 64.9926 385.302 83.8886 422.438C101.477 457.004 126.642 487.889 163.852 498.825C202.903 510.302 245.188 503.237 278.323 479.581C312.823 454.95 337.222 416.857 338.024 374.479C338.823 332.228 314.063 295.54 282.332 267.642Z" fill="white"/>
</svg>
