<svg width="52" height="52" viewBox="0 0 52 52" fill="none" xmlns="http://www.w3.org/2000/svg">
<path d="M22.75 43.0625H29.25V49.5625H22.75V43.0625Z" fill="#95573A"/>
<path d="M32.5 43.0625H42.25L32.5 31.6875H40.625L30.875 20.3125H37.375L26 7.3125L14.625 20.3125H21.125L11.375 31.6875H19.5L9.75 43.0625H19.5H32.5Z" fill="#35A872"/>
<path d="M32.2238 14.4252L32.1953 14.4475C32.1831 14.4566 32.172 14.4658 32.1598 14.4739C27.9195 17.5025 22.488 17.9463 19.6696 17.9463C18.6875 17.9463 18.0233 17.8925 17.8364 17.8752H16.7578L18.1624 16.2705C19.4309 16.3559 26.2773 16.6321 31.1492 13.1973L32.2238 14.4252Z" fill="#20754D"/>
<path d="M38.5359 29.2498H37.3751C23.3869 29.2498 18.3219 24.3453 18.1127 24.1371L17.9695 23.9939L19.0308 22.7559L19.2624 22.9874C19.2715 22.9966 20.471 24.1544 23.2833 25.299C25.8609 26.3481 30.349 27.5963 37.1425 27.6238L38.5359 29.2498Z" fill="#20754D"/>
<path d="M34.9538 34.5498L34.576 34.8016C34.4978 34.8534 32.6229 36.0905 29.114 37.3285C25.9036 38.462 20.6426 39.8127 13.8126 39.8127H12.5359L13.9294 38.1877C20.4395 38.1725 25.4476 36.8938 28.5087 35.8193C31.848 34.6483 33.6569 33.46 33.6751 33.4488L33.8884 33.3066L34.9538 34.5498Z" fill="#20754D"/>
<path d="M27.625 19.5C28.5225 19.5 29.25 18.7725 29.25 17.875C29.25 16.9775 28.5225 16.25 27.625 16.25C26.7275 16.25 26 16.9775 26 17.875C26 18.7725 26.7275 19.5 27.625 19.5Z" fill="#F7B030"/>
<path d="M21.9375 29.25C22.835 29.25 23.5625 28.5225 23.5625 27.625C23.5625 26.7275 22.835 26 21.9375 26C21.04 26 20.3125 26.7275 20.3125 27.625C20.3125 28.5225 21.04 29.25 21.9375 29.25Z" fill="#EB423F"/>
<path d="M30.0625 39.8125C30.96 39.8125 31.6875 39.085 31.6875 38.1875C31.6875 37.29 30.96 36.5625 30.0625 36.5625C29.165 36.5625 28.4375 37.29 28.4375 38.1875C28.4375 39.085 29.165 39.8125 30.0625 39.8125Z" fill="#F7B030"/>
<path d="M25.1875 13.8125C25.6362 13.8125 26 13.4487 26 13C26 12.5513 25.6362 12.1875 25.1875 12.1875C24.7388 12.1875 24.375 12.5513 24.375 13C24.375 13.4487 24.7388 13.8125 25.1875 13.8125Z" fill="#EB423F"/>
<path d="M29.25 25.1875C29.6987 25.1875 30.0625 24.8237 30.0625 24.375C30.0625 23.9263 29.6987 23.5625 29.25 23.5625C28.8013 23.5625 28.4375 23.9263 28.4375 24.375C28.4375 24.8237 28.8013 25.1875 29.25 25.1875Z" fill="#F7B030"/>
<path d="M29.25 31.6875C29.6987 31.6875 30.0625 31.3237 30.0625 30.875C30.0625 30.4263 29.6987 30.0625 29.25 30.0625C28.8013 30.0625 28.4375 30.4263 28.4375 30.875C28.4375 31.3237 28.8013 31.6875 29.25 31.6875Z" fill="#EB423F"/>
<path d="M21.9375 34.9375C22.3862 34.9375 22.75 34.5737 22.75 34.125C22.75 33.6763 22.3862 33.3125 21.9375 33.3125C21.4888 33.3125 21.125 33.6763 21.125 34.125C21.125 34.5737 21.4888 34.9375 21.9375 34.9375Z" fill="#F7B030"/>
<path d="M34.9375 40.625C35.3862 40.625 35.75 40.2612 35.75 39.8125C35.75 39.3638 35.3862 39 34.9375 39C34.4888 39 34.125 39.3638 34.125 39.8125C34.125 40.2612 34.4888 40.625 34.9375 40.625Z" fill="#F7B030"/>
<path d="M17.0625 43.0625C17.5112 43.0625 17.875 42.6987 17.875 42.25C17.875 41.8013 17.5112 41.4375 17.0625 41.4375C16.6138 41.4375 16.25 41.8013 16.25 42.25C16.25 42.6987 16.6138 43.0625 17.0625 43.0625Z" fill="#EB423F"/>
<path d="M23.5625 22.75C24.0112 22.75 24.375 22.3862 24.375 21.9375C24.375 21.4888 24.0112 21.125 23.5625 21.125C23.1138 21.125 22.75 21.4888 22.75 21.9375C22.75 22.3862 23.1138 22.75 23.5625 22.75Z" fill="#EB423F"/>
<path d="M26 8.125L28.4375 8.9375L27.625 6.5L29.25 4.875L26.8125 4.0625L26 2.4375L25.1875 4.0625L22.75 4.875L24.375 6.5L23.5625 8.9375L26 8.125Z" fill="#F7B030"/>
</svg>
