<svg width="60" height="34" viewBox="0 0 60 34" fill="none" xmlns="http://www.w3.org/2000/svg">
<path d="M53.1827 20.3688C53.0065 20.3688 52.8334 20.3784 52.6603 20.3913C52.6619 20.3368 52.6619 20.2823 52.6619 20.2294C52.6619 14.9842 48.7613 10.6525 43.702 9.97139C43.7036 9.94094 43.7068 9.91049 43.7068 9.87844C43.7068 8.69254 42.7452 7.731 41.5593 7.731C41.2628 7.731 40.9808 7.7903 40.726 7.89927C38.3366 3.25343 33.4984 0.0771484 27.9167 0.0771484C21.3189 0.0771484 15.758 4.51465 14.0561 10.5691C13.5337 10.4057 12.976 10.3191 12.399 10.3191C9.31411 10.3191 6.81251 12.8191 6.81251 15.9057C6.81251 16.8464 7.04648 17.7326 7.45834 18.5115C3.32212 18.6076 0 21.9874 0 26.1461C0 30.364 3.41987 33.7839 7.63943 33.7839H53.1827C56.8879 33.7839 59.8911 30.7807 59.8911 27.0772C59.8911 23.372 56.8879 20.3688 53.1827 20.3688Z" fill="#B7D4FF"/>
</svg>
