<svg width="77" height="96" viewBox="0 0 77 96" fill="none" xmlns="http://www.w3.org/2000/svg">
    <path fill-rule="evenodd" clip-rule="evenodd" d="M55.4877 87.7336C45.257 93.5965 33.3182 97.5949 22.3296 93.3122C10.9812 88.8892 2.74188 78.2717 0.493229 66.2999C-1.56839 55.3239 4.70817 45.2213 11.6549 36.4801C18.1209 28.3439 26.3795 21.5793 36.7347 20.6968C47.6022 19.7706 58.3277 23.886 65.7638 31.8688C73.5061 40.1803 77.8766 51.487 75.8219 62.6574C73.7733 73.7943 65.3107 82.1044 55.4877 87.7336Z" fill="#FCD962"/>
    <path d="M28.5076 3.19537C28.7819 0.302174 32.5982 -0.549712 34.0769 1.95218L38.4564 9.36247C39.1177 10.4814 40.4242 11.0472 41.6927 10.764L50.0936 8.88876C52.93 8.25562 54.9195 11.6219 52.997 13.8013L47.3027 20.2564C46.4429 21.231 46.3085 22.6485 46.9698 23.7673L51.3493 31.1776C52.828 33.6795 50.2412 36.6119 47.5744 35.4569L39.6756 32.0361C38.483 31.5196 37.0934 31.8298 36.2336 32.8044L30.5394 39.2595C28.6169 41.4389 25.0287 39.8849 25.303 36.9917L26.1156 28.4225C26.2382 27.1286 25.5138 25.9029 24.3212 25.3864L16.4224 21.9655C13.7556 20.8106 14.1247 16.9178 16.9611 16.2847L25.362 14.4094C26.6305 14.1262 27.5724 13.0585 27.6951 11.7646L28.5076 3.19537Z" fill="#E93434"/>
</svg>
