<svg width="1920" height="208" viewBox="0 0 1920 208" fill="none"
     xmlns="http://www.w3.org/2000/svg">
    <path fill-rule="evenodd" clip-rule="evenodd"
          d="M1210.75 0.0718831C1312.64 -2.0476 1413.5 42.7699 1472.82 125.642C1529.02 204.173 1519.06 305.947 1496.95 399.953C1475.08 492.929 1436.83 584.459 1353.79 631.643C1263.95 682.685 1153.99 690.542 1059.64 648.42C961.981 604.821 885.203 518.563 865.178 413.506C845.894 312.34 895.965 215.286 962.014 136.268C1025.8 59.9614 1111.32 2.14025 1210.75 0.0718831Z"
          fill="white" fill-opacity="0.54"/>
    <path fill-rule="evenodd" clip-rule="evenodd"
          d="M1682.11 2.7575C1742.51 8.34604 1782.08 60.4568 1818.74 108.751C1853.82 154.96 1892.48 206.125 1879.39 262.634C1866.34 319.013 1810.51 350.82 1757.37 373.798C1707.54 395.34 1653.36 401.971 1602.8 382.221C1546.53 360.242 1495.01 322.069 1477.21 264.372C1457.87 201.688 1469.14 131.802 1509.59 80.1464C1550.47 27.9573 1616.08 -3.35251 1682.11 2.7575Z"
          fill="white"/>
    <path fill-rule="evenodd" clip-rule="evenodd"
          d="M1741.82 36.2585C1847.48 33.4573 1958.7 52.6237 2027.23 133.094C2098.01 216.2 2117.92 334.976 2084.8 438.99C2054.43 534.352 1961.96 587.402 1869.99 626.864C1784.38 663.595 1690.46 681.888 1604.97 644.863C1515.26 606.007 1448.1 527.974 1423.32 433.399C1397.53 334.929 1411.08 227.15 1474.77 147.741C1538.26 68.5683 1640.36 38.948 1741.82 36.2585Z"
          fill="white" fill-opacity="0.27"/>
    <path fill-rule="evenodd" clip-rule="evenodd"
          d="M854.875 124.642C887.922 95.5867 928.604 72.0777 971.976 79.5588C1016.77 87.2849 1054.8 119.978 1071.94 162.083C1087.65 200.686 1072.21 242.302 1053.32 279.438C1035.73 314.004 1010.57 344.889 973.355 355.825C934.304 367.302 892.019 360.237 858.884 336.581C824.384 311.95 799.985 273.857 799.183 231.479C798.384 189.228 823.145 152.54 854.875 124.642Z"
          fill="white"/>
    <path fill-rule="evenodd" clip-rule="evenodd"
          d="M726.755 33.0043C824.369 33.6502 900.84 106.478 961.009 183.346C1020.31 259.104 1066.05 348.984 1048.07 443.496C1029.36 541.832 959.292 622.318 869.185 665.917C778.865 709.619 675.091 708.522 583.091 668.478C486.079 626.252 394.546 554.447 374.439 450.571C354.881 349.531 422.214 258.878 488.58 180.22C551.903 105.17 628.562 32.3546 726.755 33.0043Z"
          fill="white" fill-opacity="0.42"/>
    <path fill-rule="evenodd" clip-rule="evenodd"
          d="M390.957 66.2949C482.878 113.975 564.833 194.743 574.142 297.876C583.297 399.293 507.535 481.325 434.859 552.652C363.13 623.05 280.261 695.182 180.342 684.368C79.9082 673.499 8.1051 588.858 -41.8563 501.058C-88.7993 418.562 -110.716 321.27 -76.6972 232.66C-43.6951 146.698 38.7387 96.0185 125.492 65.1566C213.206 33.953 308.314 23.4274 390.957 66.2949Z"
          fill="white"/>
</svg>