<svg width="30" height="30" viewBox="0 0 30 30" fill="none" xmlns="http://www.w3.org/2000/svg">
<path d="M18.9084 7.44336H11.0169C9.04213 7.44336 7.43542 9.05007 7.43542 11.0248V18.9887C7.43542 20.9635 9.04213 22.5702 11.0169 22.5702H18.9084C20.8832 22.5702 22.4899 20.9635 22.4899 18.9887V11.0248C22.4899 9.05007 20.8832 7.44336 18.9084 7.44336ZM14.9777 19.7753C12.3009 19.7753 10.1232 17.6208 10.1232 14.9726C10.1232 12.3243 12.3012 10.1698 14.9777 10.1698C17.6542 10.1698 19.8322 12.3243 19.8322 14.9726C19.8322 17.6208 17.6545 19.7753 14.9777 19.7753ZM19.9186 11.1155C19.2877 11.1155 18.7764 10.6042 18.7764 9.97327C18.7764 9.34239 19.2877 8.83105 19.9186 8.83105C20.5495 8.83105 21.0608 9.34239 21.0608 9.97327C21.0608 10.6042 20.5495 11.1155 19.9186 11.1155Z" fill="#F77C23"/>
<path d="M15 0C6.71581 0 0 6.71581 0 15C0 23.2842 6.71581 30 15 30C23.2842 30 30 23.2842 30 15C30 6.71581 23.2842 0 15 0ZM24.2615 18.9888C24.2615 21.9406 21.86 24.3418 18.9085 24.3418H11.017C8.06518 24.3418 5.66394 21.9403 5.66394 18.9888V11.0249C5.66394 8.07309 8.06548 5.67184 11.017 5.67184H18.9085C21.8603 5.67184 24.2615 8.07339 24.2615 11.0249V18.9888Z" fill="#F77C23"/>
<path d="M14.9778 11.9375C13.2759 11.9375 11.8915 13.2987 11.8915 14.9721C11.8915 16.6454 13.2759 18.0066 14.9778 18.0066C16.6797 18.0066 18.0641 16.6454 18.0641 14.9721C18.0641 13.2987 16.6797 11.9375 14.9778 11.9375Z" fill="#F77C23"/>
</svg>
