<svg width="51" height="51" viewBox="0 0 51 51" fill="none" xmlns="http://www.w3.org/2000/svg">
<path d="M15.0831 22.0488L3.94556 43.0324L14.0595 42.098L18.9546 50.9985L30.0921 30.0149L15.0831 22.0488Z" fill="#E95454"/>
<path d="M16.3588 44.8884C16.6713 44.2172 16.3445 43.4151 15.6907 43.0675L15.0497 42.7263C14.4087 42.3612 14.1648 41.5496 14.514 40.8926C14.868 40.2245 15.7003 39.9694 16.3684 40.3234L18.1797 41.2849C18.7394 41.5814 19.441 41.3662 19.7296 40.8033L19.7742 40.7172C20.1059 40.1863 19.9098 39.4847 19.3581 39.1929L13.94 36.318C13.2798 35.9672 12.9562 35.1684 13.2639 34.4955C13.6035 33.7796 14.4614 33.4973 15.1518 33.8641L20.1776 36.5317C20.7373 36.8282 21.4389 36.613 21.7355 36.0533L21.7642 35.98L21.7721 35.964C22.0926 35.3773 21.8678 34.6406 21.2762 34.3265L18.4572 32.8308C17.7971 32.4801 17.4734 31.6812 17.7859 31.0004C18.1223 30.2924 18.9834 30.0022 19.6738 30.3689L22.7878 32.0224C23.3698 32.3318 24.065 32.0735 24.3664 31.4867C24.3712 31.4787 24.3712 31.4787 24.3744 31.4707C24.3791 31.4628 24.3791 31.4628 24.3823 31.4548C24.6996 30.876 24.5242 30.1553 23.9407 29.8475L20.581 28.0649C19.9289 27.7189 19.6052 26.92 19.913 26.2472C20.2526 25.5312 21.1104 25.249 21.8008 25.6157L30.089 30.015L18.9515 50.9985L15.8821 45.4194C16.0798 45.2855 16.252 45.1196 16.3588 44.8884Z" fill="#ED6362"/>
<path d="M35.917 22.0488L47.0545 43.0324L36.9406 42.098L32.0455 50.9985L20.908 30.0149L35.917 22.0488Z" fill="#ED6362"/>
<path d="M34.6414 44.8888C34.3288 44.2175 34.6557 43.4155 35.3095 43.0679L35.9504 42.7267C36.5914 42.3615 36.8354 41.5499 36.4862 40.893C36.1322 40.2249 35.2999 39.9698 34.6318 40.3237L32.8204 41.2852C32.2608 41.5818 31.5592 41.3666 31.2706 40.8037L31.2259 40.7176C30.8943 40.1866 31.0904 39.485 31.6421 39.1933L37.0618 36.3168C37.7219 35.966 38.0456 35.1671 37.7379 34.4943C37.3982 33.7783 36.5404 33.4961 35.85 33.8628L30.8241 36.5304C30.2645 36.827 29.5629 36.6118 29.2663 36.0521L29.2376 35.9787L29.2296 35.9628C28.9091 35.376 29.134 34.6394 29.7255 34.3253L32.5446 32.8296C33.2047 32.4788 33.5284 31.68 33.2159 30.9991C32.8794 30.2912 32.0184 30.001 31.328 30.3677L28.2107 32.0244C27.6288 32.3337 26.9336 32.0754 26.6322 31.4886C26.6274 31.4807 26.6274 31.4807 26.6242 31.4727C26.6194 31.4647 26.6194 31.4647 26.6163 31.4567C26.2989 30.8779 26.4743 30.1572 27.0579 29.8495L30.4175 28.0668C31.0697 27.7208 31.3934 26.922 31.0856 26.2491C30.746 25.5332 29.8882 25.251 29.1977 25.6177L20.9095 30.0169L32.0471 51.0005L35.1165 45.4214C34.9204 45.2858 34.7482 45.12 34.6414 44.8888Z" fill="#E95454"/>
<path d="M25.5 37.2188C35.7777 37.2188 44.1094 28.8871 44.1094 18.6094C44.1094 8.3317 35.7777 0 25.5 0C15.2223 0 6.89062 8.3317 6.89062 18.6094C6.89062 28.8871 15.2223 37.2188 25.5 37.2188Z" fill="#FFCC5B"/>
<path d="M28.0241 16.4741H16.2312C15.3143 16.4741 14.5617 15.7214 14.5617 14.8046L14.5745 14.6898V14.6643C14.5617 13.6964 15.351 12.9056 16.3205 12.9056H24.4939C25.5765 12.9056 26.5332 12.1035 26.597 11.0193C26.648 9.88559 25.7439 8.92889 24.6087 8.92889H15.9505C14.9954 8.92889 14.2811 8.12686 14.2939 7.17016C14.2939 7.1574 14.2939 7.1574 14.2939 7.14465C14.2939 7.13189 14.2939 7.13189 14.2939 7.11914C14.2811 6.16403 14.9938 5.3604 15.9505 5.3604H25.0105C26.0804 5.3604 27.0371 4.55837 27.1009 3.48687C27.1519 2.34043 26.2478 1.39648 25.1125 1.39648H18.4778C11.7124 4.18526 6.94482 10.8375 6.94482 18.6091C6.94482 26.3807 11.7124 33.0313 18.4794 35.8169H26.9031C27.9731 35.8169 28.9298 35.0149 28.9935 33.9434C29.0446 32.7969 28.1405 31.8546 27.0052 31.8546L17.4223 31.853C16.2918 31.853 15.3813 30.9074 15.4419 29.7626C15.4977 28.6911 16.4608 27.8859 17.5339 27.8859H21.2491C22.3174 27.8556 23.18 26.9802 23.18 25.9039C23.18 24.8085 22.2887 23.9156 21.1917 23.9156H15.5599C14.6431 23.9156 13.8905 23.1646 13.9032 22.2461V22.1058C13.8394 21.2017 14.5665 20.4364 15.4706 20.4364H27.9093C28.9919 20.4364 29.9486 19.6343 30.0124 18.5628C30.0634 17.418 29.1578 16.4741 28.0241 16.4741Z" fill="#FDBC4B"/>
<path d="M25.5001 31.8921C18.1749 31.8921 12.2163 25.9319 12.2163 18.6083C12.2163 11.2848 18.1749 5.32617 25.5001 5.32617C32.8252 5.32617 38.7838 11.2864 38.7838 18.6099C38.7838 25.9335 32.8252 31.8921 25.5001 31.8921Z" fill="#FFDB70"/>
<path opacity="0.2" d="M38.7837 18.6088C38.7837 11.542 33.2316 5.76191 26.2621 5.36328H25.0248C24.2084 5.36328 23.4797 5.97557 23.4303 6.79195C23.392 7.66574 24.0808 8.38645 24.9466 8.38645L32.2558 8.38804C33.1184 8.38804 33.812 9.10876 33.7658 9.98254C33.7227 10.8005 32.9893 11.4144 32.1697 11.4144H29.3363C28.5215 11.4383 27.863 12.1048 27.863 12.926C27.863 13.7615 28.5438 14.4423 29.3793 14.4423H33.6749C34.3749 14.4423 34.9473 15.0164 34.9378 15.7148V15.82C34.9856 16.5104 34.4323 17.0924 33.7419 17.0924H24.2562C23.4303 17.0924 22.7016 17.7047 22.6522 18.5211C22.6139 19.3949 23.3027 20.1156 24.1685 20.1156H33.1615C33.8615 20.1156 34.4339 20.6896 34.4339 21.388L34.4243 21.4757V21.4948C34.4339 22.2331 33.8312 22.8358 33.0929 22.8358H26.8584C26.0325 22.8358 25.3038 23.4481 25.2544 24.274C25.2161 25.1382 25.9049 25.8685 26.7707 25.8685H33.3736C34.1022 25.8685 34.646 26.4808 34.6364 27.2095C34.6364 27.2191 34.6364 27.2191 34.6364 27.2286C34.6364 27.2382 34.6364 27.2382 34.6364 27.2478C34.646 27.9764 34.1022 28.5887 33.3736 28.5887H26.4646C25.6482 28.5887 24.9195 29.201 24.8701 30.0174C24.8318 30.8928 25.5207 31.6119 26.3865 31.6119H28.209C34.241 30.3554 38.7837 25.0027 38.7837 18.6088Z" fill="white"/>
<path d="M34.7737 15.6668H28.3128L26.3149 9.52164C26.0582 8.73237 24.9404 8.73237 24.6837 9.52164L22.6874 15.6668H16.2265C15.3957 15.6668 15.0497 16.7304 15.7226 17.2183L20.9494 21.0164L18.9531 27.1616C18.6964 27.9509 19.6004 28.6078 20.2733 28.1199L25.5001 24.3218L30.7268 28.1199C31.3997 28.6078 32.3038 27.9509 32.0471 27.1616L30.0508 21.0164L35.2775 17.2183C35.9488 16.7304 35.6044 15.6668 34.7737 15.6668Z" fill="#EC9922"/>
</svg>
