<svg width="425" height="956" viewBox="0 0 425 956" fill="none" xmlns="http://www.w3.org/2000/svg">
    <path d="M190.729 60.0641C190.412 60.0641 190.1 60.0814 189.789 60.1045C189.791 60.0064 189.791 59.9083 189.791 59.8131C189.791 50.3718 182.77 42.5747 173.664 41.3487C173.666 41.2939 173.672 41.2391 173.672 41.1814C173.672 39.0468 171.941 37.316 169.807 37.316C169.273 37.316 168.765 37.4227 168.307 37.6189C164.006 29.2564 155.297 23.5391 145.25 23.5391C133.374 23.5391 123.364 31.5266 120.301 42.4247C119.361 42.1304 118.357 41.9747 117.318 41.9747C111.765 41.9747 107.263 46.4747 107.263 52.0304C107.263 53.7237 107.684 55.3189 108.425 56.7208C100.98 56.8939 95 62.9776 95 70.4631C95 78.0554 101.156 84.2112 108.751 84.2112H190.729C197.398 84.2112 202.804 78.8054 202.804 72.1391C202.804 65.4699 197.398 60.0641 190.729 60.0641Z" fill="white"/>
    <path d="M422.133 198.443C423.073 196.814 423.611 194.924 423.611 192.904C423.611 186.769 418.64 181.795 412.501 181.795C411.399 181.795 410.335 181.961 409.329 182.259C409.461 181.268 409.535 180.258 409.535 179.234C409.535 170.563 404.572 163.058 397.335 159.395C398.329 157.239 398.886 154.84 398.886 152.313C398.886 142.983 391.321 135.414 381.987 135.414C375.181 135.414 369.315 139.442 366.64 145.238C364.304 142.902 361.076 141.457 357.513 141.457C351.61 141.457 346.635 145.426 345.102 150.835C343.507 150.525 341.86 150.363 340.172 150.363C325.989 150.363 314.493 161.86 314.493 176.043C314.493 177.922 314.695 179.753 315.079 181.518C314.371 181.382 313.645 181.308 312.897 181.308C306.626 181.308 301.544 186.39 301.544 192.661C301.544 194.128 301.824 195.524 302.329 196.814C302.071 196.781 301.81 196.762 301.544 196.762C297.929 196.762 295 199.692 295 203.307C295 206.918 297.929 209.844 301.544 209.844H417.759C421.371 209.844 424.3 206.918 424.3 203.307C424.3 201.372 423.464 199.64 422.133 198.443Z" fill="white" fill-opacity="0.44"/>
    <path fill-rule="evenodd" clip-rule="evenodd" d="M230.881 472.26C233.115 566.425 191.993 659.768 115.609 714.813C43.2266 766.974 -50.8038 758.048 -137.693 737.864C-223.629 717.902 -308.275 682.8 -352.082 606.173C-399.471 523.28 -407.027 421.669 -368.377 334.352C-328.372 243.973 -248.908 172.777 -151.926 153.984C-58.5368 135.886 31.2428 181.901 104.408 242.732C175.061 301.476 228.7 380.366 230.881 472.26Z" fill="white" fill-opacity="0.54"/>
    <path fill-rule="evenodd" clip-rule="evenodd" d="M122.889 671.192C152.042 704.154 175.67 744.766 168.317 788.16C160.722 832.974 128.141 871.104 86.0866 888.362C47.53 904.186 5.86902 888.876 -31.3227 870.089C-65.9407 852.603 -96.8993 827.529 -107.944 790.351C-119.536 751.333 -112.595 709.028 -89.0365 675.824C-64.5076 641.252 -26.4862 616.741 15.8891 615.814C58.1377 614.891 94.8984 639.544 122.889 671.192Z" fill="white"/>
</svg>
