<svg width="331" height="1281" viewBox="0 0 331 1281" fill="none" xmlns="http://www.w3.org/2000/svg">
    <path fill-rule="evenodd" clip-rule="evenodd" d="M3.09417 566.376C-81.9756 606.814 -183.974 607.329 -265.381 560.029C-342.524 515.207 -372.717 425.709 -389.718 338.142C-406.533 251.535 -408.997 159.933 -356.894 88.6871C-300.529 11.6153 -210.83 -36.7173 -115.343 -37.0317C-16.5058 -37.3573 80.9049 6.16911 137.611 87.0582C192.217 164.951 186.811 265.691 161.101 357.302C136.273 445.768 86.1121 526.914 3.09417 566.376Z" fill="white" fill-opacity="0.54"/>
    <path fill-rule="evenodd" clip-rule="evenodd" d="M200.473 30.7931C213.528 -11.23 218.405 -57.9622 193.888 -94.5136C168.569 -132.262 123.209 -153.659 77.7763 -152.136C36.1226 -150.739 4.41633 -119.679 -21.7872 -87.2821C-46.1774 -57.1273 -64.1165 -21.556 -58.9287 16.8795C-53.4841 57.2165 -29.7906 92.9452 5.32071 113.554C41.8783 135.012 86.6098 141.757 125.631 125.209C164.536 108.71 187.939 71.1416 200.473 30.7931Z" fill="white"/>
    <path d="M221.439 1083.49C220.131 1083.49 218.848 1083.56 217.564 1083.65C217.576 1083.25 217.576 1082.85 217.576 1082.45C217.576 1043.55 188.646 1011.42 151.123 1006.37C151.135 1006.15 151.158 1005.92 151.158 1005.68C151.158 996.889 144.027 989.757 135.232 989.757C133.033 989.757 130.941 990.197 129.051 991.005C111.33 956.549 75.4467 932.991 34.0488 932.991C-14.8846 932.991 -56.128 965.903 -68.7506 1010.81C-72.6253 1009.59 -76.7615 1008.95 -81.0404 1008.95C-103.92 1008.95 -122.474 1027.49 -122.474 1050.39C-122.474 1057.36 -120.739 1063.94 -117.684 1069.71C-148.361 1070.43 -173 1095.49 -173 1126.34C-173 1157.62 -147.636 1182.98 -116.341 1182.98H221.439C248.918 1182.98 271.192 1160.71 271.192 1133.24C271.192 1105.76 248.918 1083.49 221.439 1083.49Z" fill="#B7D4FF"/>
</svg>
