<svg width="486" height="1347" viewBox="0 0 486 1347" fill="none" xmlns="http://www.w3.org/2000/svg">
    <path fill-rule="evenodd" clip-rule="evenodd" d="M404.094 1316.38C319.024 1356.81 217.026 1357.33 135.618 1310.03C58.4757 1265.21 28.2834 1175.71 11.282 1088.14C-5.53304 1001.53 -7.99757 909.933 44.1063 838.687C100.471 761.615 190.17 713.283 285.657 712.968C384.494 712.643 481.905 756.169 538.611 837.058C593.217 914.951 587.811 1015.69 562.101 1107.3C537.273 1195.77 487.112 1276.91 404.094 1316.38Z" fill="white" fill-opacity="0.54"/>
    <path fill-rule="evenodd" clip-rule="evenodd" d="M601.473 780.793C614.528 738.77 619.405 692.038 594.888 655.486C569.569 617.738 524.209 596.341 478.776 597.864C437.122 599.261 405.416 630.321 379.213 662.718C354.823 692.873 336.883 728.444 342.071 766.879C347.516 807.217 371.209 842.945 406.321 863.554C442.878 885.012 487.61 891.757 526.631 875.209C565.536 858.71 588.939 821.142 601.473 780.793Z" fill="white"/>
    <path d="M595.891 104.851C594.983 104.851 594.092 104.9 593.201 104.966C593.209 104.686 593.209 104.405 593.209 104.133C593.209 77.12 573.12 54.8116 547.065 51.304C547.073 51.1471 547.09 50.9903 547.09 50.8253C547.09 44.7179 542.138 39.766 536.031 39.766C534.504 39.766 533.051 40.0713 531.739 40.6326C519.433 16.7065 494.517 0.348633 465.771 0.348633C431.792 0.348633 403.154 23.2018 394.389 54.3824C391.698 53.5406 388.826 53.0949 385.855 53.0949C369.968 53.0949 357.084 65.9699 357.084 81.8656C357.084 86.7102 358.289 91.2743 360.41 95.2853C339.109 95.7805 322 113.187 322 134.604C322 156.326 339.612 173.938 361.343 173.938H595.891C614.973 173.938 630.439 158.472 630.439 139.399C630.439 120.317 614.973 104.851 595.891 104.851Z" fill="#B7D4FF"/>
</svg>
