<svg width="202" height="948" viewBox="0 0 202 948" fill="none" xmlns="http://www.w3.org/2000/svg">
    <path d="M139.684 70.0754C139.314 70.0754 138.95 70.0956 138.587 70.1225C138.59 70.0081 138.59 69.8937 138.59 69.7826C138.59 58.7677 130.399 49.6711 119.774 48.2408C119.777 48.1768 119.784 48.1129 119.784 48.0456C119.784 45.5552 117.765 43.536 115.275 43.536C114.652 43.536 114.06 43.6605 113.525 43.8893C108.507 34.1331 98.3467 27.4629 86.6251 27.4629C72.7698 27.4629 61.0919 36.7816 57.5178 49.4961C56.4207 49.1528 55.2495 48.9711 54.038 48.9711C47.5596 48.9711 42.3063 54.2211 42.3063 60.7028C42.3063 62.6783 42.7976 64.5394 43.6625 66.1749C34.9764 66.3769 28 73.4745 28 82.2076C28 91.0653 35.1817 98.2471 44.0428 98.2471H139.684C147.465 98.2471 153.771 91.9403 153.771 84.1629C153.771 76.3822 147.465 70.0754 139.684 70.0754Z" fill="white"/>
    <path fill-rule="evenodd" clip-rule="evenodd" d="M632.881 666.26C635.115 760.425 593.993 853.768 517.609 908.813C445.227 960.974 351.196 952.048 264.307 931.864C178.371 911.902 93.7251 876.8 49.9181 800.173C2.52867 717.28 -5.02695 615.669 33.6227 528.352C73.6278 437.973 153.092 366.777 250.074 347.984C343.463 329.886 433.243 375.901 506.408 436.732C577.061 495.476 630.7 574.366 632.881 666.26Z" fill="white" fill-opacity="0.54"/>
    <path fill-rule="evenodd" clip-rule="evenodd" d="M224.332 267.642C191.285 238.587 150.603 215.078 107.231 222.559C62.4393 230.285 24.4056 262.978 7.27062 305.083C-8.43917 343.686 6.99262 385.302 25.8886 422.438C43.477 457.004 68.6417 487.889 105.852 498.825C144.903 510.302 187.188 503.237 220.323 479.581C254.823 454.95 279.222 416.857 280.024 374.479C280.823 332.228 256.063 295.54 224.332 267.642Z" fill="white"/>
</svg>
