<svg width="461" height="187" viewBox="0 0 461 187" fill="none" xmlns="http://www.w3.org/2000/svg">
    <g clip-path="url(#clip0_0:1)">
        <path d="M338.494 184.274L346.693 213.274C344.376 219.922 339.606 232.491 332.802 236.812C324.095 242.341 313.296 238.733 313.296 238.733L305.094 209.737C305.094 209.737 312.396 199.493 321.279 193.745C327.888 189.467 336.239 190.738 338.494 184.274V184.274Z" fill="#F9F8F9"/>
        <path d="M323.305 130.574L331.507 159.569C329.361 165.726 325.387 177.938 319.121 182.129C309.963 188.255 298.111 185.035 298.111 185.035L289.907 156.033C289.907 156.033 296.311 146.119 304.763 140.883C311.823 136.509 320.898 137.471 323.305 130.574V130.574Z" fill="#F9F8F9"/>
        <path d="M286.187 61.9328C286.231 61.9573 286.268 61.9838 286.312 62.0084C297.925 69.2817 307.304 80.1936 312.554 93.6741C310.464 102.495 308.529 116.749 304.261 122.711C296.654 133.339 285.86 132.547 283.661 133.957L277.095 110.728C278.61 108.58 278.55 99.0975 280.806 86.323C282.062 79.2081 287.07 72.7657 286.187 61.9328V61.9328Z" fill="#F9F8F9"/>
        <path d="M229.554 102.684C226.049 107.863 224.381 114.248 225.159 120.724C219.299 118.512 202.654 121.608 202.654 121.608C202.654 121.608 190.641 117.243 185.909 117.64C185.899 106.556 188.73 95.8073 193.879 86.3241C197.279 86.8231 215.79 87.2738 215.79 87.2738C215.79 87.2738 225.219 97.6967 229.554 102.684Z" fill="#F9F8F9"/>
        <path d="M331.506 159.569L338.493 184.274C333.207 199.427 305.093 209.737 305.093 209.737L298.11 185.035C298.11 185.035 326.224 174.724 331.506 159.569V159.569Z" fill="#DC4955"/>
        <path d="M250.903 51.9662C250.903 51.9662 259.417 63.0148 261.75 73.525C263.246 80.2608 259.611 85.3272 258.088 91.8817C253.693 90.7419 248.945 90.7203 244.263 92.0457C243.194 92.3485 242.16 92.7115 241.162 93.1347C239.856 87.5805 233.268 85.6993 228.824 80.2018C222.328 72.1666 217.618 61.4012 217.618 61.4012C222.51 58.4392 227.877 56.083 233.634 54.4529C239.392 52.8227 245.191 52.0176 250.903 51.9662V51.9662Z" fill="#F9F8F9"/>
        <path d="M225.159 120.725C225.323 122.074 225.592 123.43 225.975 124.781L228.784 134.717C231.72 145.099 225.686 155.899 215.306 158.841C204.926 161.784 194.13 155.752 191.199 145.373L188.389 135.437C186.732 129.583 185.929 123.688 185.907 117.882C185.906 117.801 185.905 117.72 185.909 117.641C195.086 116.871 213.061 116.158 225.159 120.725V120.725Z" fill="#DC4955"/>
        <path d="M217.618 61.4006C217.618 61.4006 237.946 79.4628 241.162 93.1341C236.335 95.1745 232.358 98.5439 229.554 102.684C219.277 90.8605 199.761 87.1869 193.878 86.324L193.905 86.2756C199.389 76.1718 207.501 67.5078 217.618 61.4006V61.4006Z" fill="#DC4955"/>
        <path d="M286.187 61.9331C288.656 92.2149 279.454 107.384 277.095 110.729L276.98 110.324C274.326 100.936 266.911 94.1625 258.088 91.8815C261.988 75.0999 250.903 51.966 250.903 51.966C263.537 51.8466 275.756 55.4244 286.187 61.9331V61.9331Z" fill="#DC4955"/>
        <path d="M312.554 93.6742C313.315 95.6169 313.985 97.6186 314.565 99.6681L323.307 130.569L323.304 130.574C318.018 145.727 289.907 156.033 289.907 156.033L283.66 133.957C287.094 131.756 306.739 118.22 312.554 93.6742Z" fill="#DC4955"/>
        <path d="M299.211 151.907L307.415 180.909C302.129 183.564 298.11 185.035 298.11 185.035L289.906 156.033C289.906 156.033 293.925 154.562 299.211 151.907V151.907Z" fill="#EFEDEF"/>
        <path d="M282.779 98.6426C284.454 101.408 285.774 104.406 286.674 107.587L292.225 127.231C288.208 130.919 284.892 133.168 283.66 133.957L277.095 110.728C278.158 109.217 280.623 105.291 282.779 98.6426V98.6426Z" fill="#EFEDEF"/>
        <path d="M221.85 96.1189C224.603 97.9049 227.174 100.005 229.346 102.448C229.417 102.528 229.484 102.605 229.554 102.685C226.049 107.864 224.381 114.249 225.159 120.725C225.064 120.689 224.973 120.655 224.875 120.624C221.833 119.501 218.432 118.709 214.897 118.159C214.788 111.734 216.376 105.42 219.563 99.7168C220.071 98.8065 220.627 97.9052 221.21 97.0367C221.418 96.726 221.635 96.4202 221.85 96.1189V96.1189Z" fill="#EFEDEF"/>
        <path d="M307.415 180.909L308.773 185.707L312.979 200.601L314.398 205.611C309.114 208.262 305.093 209.737 305.093 209.737L298.11 185.035C298.11 185.035 302.129 183.564 307.415 180.909Z" fill="#D82F3C"/>
        <path d="M258.862 81.7264C259.034 85.2094 258.835 88.6641 258.088 91.8817C253.693 90.7419 248.945 90.7203 244.263 92.0458C243.194 92.3485 242.16 92.7115 241.162 93.1348C241.132 93.0026 241.1 92.8748 241.063 92.7446C240.336 89.9149 238.904 86.9108 237.081 83.9249C237.127 83.9045 237.18 83.8821 237.226 83.8617C238.604 83.2754 240.045 82.771 241.519 82.3538C247.181 80.7508 253.142 80.5326 258.862 81.7264V81.7264Z" fill="#EFEDEF"/>
        <path d="M225.159 120.724C225.323 122.073 225.592 123.43 225.975 124.78L228.784 134.716C230.627 141.239 228.933 147.927 224.839 152.725L216.283 127.524C215.762 125.698 215.388 123.816 215.157 121.927C215.082 121.308 215.02 120.685 214.981 120.063C214.938 119.428 214.906 118.792 214.897 118.158C218.432 118.708 221.833 119.5 224.875 120.623C224.973 120.655 225.064 120.688 225.159 120.724V120.724Z" fill="#D82F3C"/>
        <path d="M237.081 83.9251C238.904 86.911 240.335 89.9151 241.063 92.7448C241.099 92.875 241.132 93.0028 241.162 93.135C236.335 95.1754 232.358 98.5447 229.554 102.685C229.484 102.605 229.417 102.528 229.347 102.448C227.174 100.005 224.603 97.9047 221.85 96.1187C222.132 95.728 222.42 95.3466 222.714 94.9744C225.876 90.9363 229.823 87.631 234.326 85.242C235.22 84.7666 236.143 84.3241 237.081 83.9251V83.9251Z" fill="#D82F3C"/>
        <path d="M279.616 94.2044C280.774 95.6016 281.834 97.0822 282.779 98.6432C280.623 105.291 278.158 109.217 277.095 110.729L276.98 110.325C274.326 100.937 266.911 94.1627 258.087 91.8817C258.835 88.6642 259.034 85.2095 258.862 81.7265C259.45 81.8414 260.032 81.9764 260.612 82.127C260.808 82.1788 261.004 82.2307 261.198 82.2869C268.497 84.2996 274.9 88.5284 279.616 94.2044V94.2044Z" fill="#D82F3C"/>
        <path d="M292.225 127.231L293.352 131.213L293.368 131.268L297.703 146.592L299.211 151.906C293.925 154.562 289.907 156.033 289.907 156.033L283.66 133.957C284.892 133.168 288.208 130.919 292.225 127.231V127.231Z" fill="#D82F3C"/>
    </g>
    <g clip-path="url(#clip1_0:1)">
        <path d="M48.9581 164.837L45.4844 177.936C46.5409 180.813 47.4832 184.404 50.4722 186.275C54.3551 188.706 60.3447 189.016 60.669 189.131C60.7415 188.926 60.8036 188.717 60.8603 188.504L64.1643 176.038C64.1643 176.038 60.9624 171.54 56.9988 169.109C53.9159 167.218 50.0471 167.801 48.9581 164.837V164.837Z" fill="#F9F8F9"/>
        <path d="M55.3896 140.575L51.9171 153.676C53.0083 156.648 55.2463 162.264 58.3377 164.157C62.2938 166.579 67.1234 164.877 67.1234 164.877L70.597 151.777C70.597 151.777 67.2377 147.225 63.2007 144.706C60.1971 142.831 56.4515 143.465 55.3896 140.575V140.575Z" fill="#F9F8F9"/>
        <path d="M61.8223 116.315L58.3487 129.414C59.3592 132.167 61.2363 137.628 64.0848 139.467C68.2484 142.154 73.5541 140.618 73.5541 140.618L77.0285 127.516C77.0285 127.516 74.0754 123.106 70.2361 120.814C67.0292 118.899 62.9553 119.399 61.8223 116.315V116.315Z" fill="#F9F8F9"/>
        <path d="M78.005 85.1749C77.9854 85.1863 77.9689 85.1985 77.9493 85.2098C72.7808 88.5663 68.6442 93.5425 66.3835 99.643C67.3883 103.594 68.364 109.989 70.3271 112.639C73.8267 117.361 78.6742 116.925 79.6738 117.543L82.4542 107.049C81.757 106.094 81.7137 101.83 80.605 96.1025C79.9875 92.9125 77.6879 90.0526 78.005 85.1749V85.1749Z" fill="#F9F8F9"/>
        <path d="M103.772 103.08C105.387 105.383 106.184 108.242 105.882 111.16C108.501 110.122 116.008 111.391 116.008 111.391C116.008 111.391 121.378 109.339 123.509 109.483C123.431 104.498 122.079 99.686 119.693 95.4598C118.168 95.7094 109.848 96.049 109.848 96.049C109.848 96.049 105.685 100.806 103.772 103.08Z" fill="#F9F8F9"/>
        <path d="M45.4844 177.936L43.8787 183.991C42.6374 188.68 45.4306 193.492 50.1179 194.74C54.5935 195.929 59.1806 193.439 60.6689 189.131C60.0949 188.927 47.913 184.552 45.4844 177.936V177.936Z" fill="#DC4955"/>
        <path d="M51.9172 153.676L48.9581 164.836C51.4474 171.611 64.1643 176.037 64.1643 176.037L67.1234 164.876C67.1234 164.876 54.4045 160.451 51.9172 153.676V153.676Z" fill="#DC4955"/>
        <path d="M58.3488 129.414L55.3897 140.575C57.879 147.349 70.597 151.778 70.597 151.778L73.5542 140.618C73.5542 140.618 60.8361 136.19 58.3488 129.414V129.414Z" fill="#DC4955"/>
        <path d="M93.7972 80.4321C93.7972 80.4321 90.0503 85.4633 89.079 90.2067C88.4566 93.2466 90.1286 95.4979 90.8619 98.4339C92.8296 97.8889 94.9646 97.844 97.0795 98.4054C97.5625 98.5336 98.0301 98.6892 98.482 98.8721C99.0283 96.3649 101.977 95.4702 103.935 92.9653C106.796 89.3041 108.834 84.4284 108.834 84.4284C106.613 83.1327 104.182 82.1129 101.581 81.4225C98.9796 80.7321 96.3662 80.4129 93.7972 80.4321V80.4321Z" fill="#F9F8F9"/>
        <path d="M105.882 111.16C105.818 111.768 105.707 112.38 105.545 112.99L104.356 117.479C103.112 122.169 105.906 126.981 110.595 128.227C115.284 129.473 120.094 126.681 121.335 121.992L122.525 117.503C123.227 114.859 123.544 112.202 123.512 109.591C123.511 109.555 123.511 109.518 123.509 109.483C119.376 109.205 111.289 109.017 105.882 111.16V111.16Z" fill="#DC4955"/>
        <path d="M108.834 84.4281C108.834 84.4281 99.8268 92.7005 98.4821 98.8718C100.668 99.7536 102.481 101.239 103.772 103.08C108.306 97.6875 117.055 95.8912 119.693 95.4596L119.681 95.4381C117.141 90.9353 113.429 87.0994 108.834 84.4281V84.4281Z" fill="#DC4955"/>
        <path d="M78.0051 85.1749C77.1188 98.8099 81.369 105.563 82.4545 107.049L82.5029 106.867C83.627 102.626 86.9112 99.5247 90.8619 98.4338C88.984 90.9165 93.7972 80.4319 93.7972 80.4319C88.1153 80.4717 82.6475 82.1709 78.0051 85.1749V85.1749Z" fill="#DC4955"/>
        <path d="M66.3837 99.643C66.0558 100.522 65.7692 101.427 65.5234 102.353L61.8213 116.313L61.8225 116.315C64.3118 123.09 77.0287 127.516 77.0287 127.516L79.6741 117.543C78.1137 116.579 69.1799 110.637 66.3837 99.643Z" fill="#DC4955"/>
        <path d="M59.9279 174.24L56.4261 187.327C58.6972 188.423 60.4583 189.056 60.669 189.131C60.7415 188.926 60.8036 188.717 60.8603 188.504L64.1643 176.037C64.1643 176.037 62.336 175.401 59.9279 174.24Z" fill="#EFEDEF"/>
        <path d="M66.3827 149.991L66.2167 150.617L62.9091 163.09C65.3045 164.243 67.1235 164.877 67.1235 164.877L70.5971 151.778C70.5971 151.778 68.7782 151.144 66.3827 149.991V149.991Z" fill="#EFEDEF"/>
        <path d="M72.8143 125.729L69.3398 138.832C71.7364 139.986 73.5542 140.618 73.5542 140.618L77.0287 127.516C77.0287 127.516 75.2108 126.884 72.8143 125.729V125.729Z" fill="#EFEDEF"/>
        <path d="M79.8088 101.657C79.0761 102.913 78.5051 104.271 78.1237 105.708L75.7731 114.582C77.6065 116.211 79.1145 117.198 79.6741 117.543L82.4545 107.05C81.9649 106.378 80.8277 104.631 79.8088 101.657V101.657Z" fill="#EFEDEF"/>
        <path d="M107.188 100.071C105.963 100.894 104.823 101.858 103.864 102.972C103.833 103.009 103.803 103.044 103.772 103.081C105.387 105.384 106.184 108.242 105.882 111.16C105.925 111.143 105.965 111.127 106.009 111.112C107.369 110.585 108.892 110.204 110.478 109.93C110.479 107.04 109.718 104.213 108.243 101.672C108.008 101.266 107.751 100.865 107.482 100.479C107.387 100.341 107.287 100.205 107.188 100.071V100.071Z" fill="#EFEDEF"/>
        <path d="M54.4512 194.786C57.2727 194.096 59.669 192.024 60.669 189.131C60.4583 189.057 58.6973 188.423 56.4261 187.327L56.2425 188.012L54.4512 194.786Z" fill="#D82F3C"/>
        <path d="M62.909 163.09L62.743 163.715L62.2895 165.411L60.5486 171.92L59.9279 174.24C62.3361 175.401 64.1643 176.037 64.1643 176.037L67.1234 164.876C67.1234 164.876 65.3045 164.243 62.909 163.09V163.09Z" fill="#D82F3C"/>
        <path d="M69.3398 138.832L68.7645 140.999L66.9835 147.728L66.3827 149.991C68.7781 151.144 70.597 151.778 70.597 151.778L73.5542 140.618C73.5542 140.618 71.7364 139.987 69.3398 138.832Z" fill="#D82F3C"/>
        <path d="M90.4383 93.8733C90.3869 95.4407 90.502 96.9927 90.8619 98.434C92.8296 97.889 94.9646 97.8441 97.0795 98.4055C97.5626 98.5337 98.0301 98.6893 98.482 98.8722C98.4945 98.8126 98.5082 98.7549 98.5238 98.6961C98.8298 97.4183 99.4514 96.0568 100.249 94.7007C100.228 94.6918 100.204 94.6822 100.183 94.6733C99.5594 94.4199 98.9074 94.2037 98.2417 94.027C95.684 93.3481 93.0018 93.2942 90.4383 93.8733V93.8733Z" fill="#EFEDEF"/>
        <path d="M105.882 111.16C105.819 111.768 105.707 112.38 105.546 112.99L104.356 117.478C103.575 120.425 104.386 123.42 106.263 125.547L109.924 114.152C110.145 113.327 110.299 112.478 110.389 111.627C110.418 111.348 110.441 111.067 110.454 110.787C110.469 110.501 110.478 110.215 110.478 109.93C108.892 110.204 107.369 110.585 106.009 111.112C105.965 111.127 105.925 111.143 105.882 111.16V111.16Z" fill="#D82F3C"/>
        <path d="M100.249 94.7007C99.4514 96.0569 98.8299 97.4183 98.5239 98.6961C98.5082 98.755 98.4946 98.8126 98.4821 98.8723C100.668 99.7541 102.481 101.24 103.772 103.081C103.803 103.044 103.833 103.009 103.864 102.972C104.823 101.858 105.963 100.895 107.188 100.071C107.058 99.8975 106.926 99.7281 106.791 99.563C105.339 97.7705 103.54 96.3135 101.498 95.2725C101.092 95.0654 100.674 94.8732 100.249 94.7007V94.7007Z" fill="#D82F3C"/>
        <path d="M81.1984 99.6377C80.688 100.275 80.2224 100.948 79.8089 101.657C80.8277 104.631 81.965 106.378 82.4546 107.05L82.503 106.867C83.6271 102.626 86.9114 99.5249 90.862 98.4339C90.5021 96.9926 90.387 95.4407 90.4384 93.8732C90.175 93.9292 89.9141 93.9942 89.6547 94.0662C89.5669 94.091 89.4791 94.1158 89.3924 94.1425C86.1248 95.1015 83.2773 97.0505 81.1984 99.6377V99.6377Z" fill="#D82F3C"/>
        <path d="M75.7732 114.582L75.2957 116.381L75.2891 116.406L73.4532 123.328L72.8143 125.729C75.2109 126.884 77.0287 127.516 77.0287 127.516L79.6741 117.543C79.1146 117.197 77.6065 116.21 75.7732 114.582V114.582Z" fill="#D82F3C"/>
    </g>
    <defs>
        <clipPath id="clip0_0:1">
            <rect width="250.344" height="250.344" fill="white" transform="translate(120 218.549) rotate(-60.8083)"/>
        </clipPath>
        <clipPath id="clip1_0:1">
            <rect width="112.587" height="112.587" fill="white" transform="matrix(-0.502032 -0.864849 -0.864849 0.502032 153.893 154.37)"/>
        </clipPath>
    </defs>
</svg>
