<svg width="290" height="446" viewBox="0 0 290 446" fill="none" xmlns="http://www.w3.org/2000/svg" xmlns:xlink="http://www.w3.org/1999/xlink">
    <path d="M17 20.719C17 9.02438 26.9904 -0.175322 38.6453 0.786762L143.355 9.43022C144.45 9.52061 145.55 9.52061 146.645 9.43022L251.355 0.786763C263.01 -0.175321 273 9.02437 273 20.719V425.281C273 436.976 263.01 446.175 251.355 445.213L146.645 436.57C145.55 436.479 144.45 436.479 143.355 436.57L38.6454 445.213C26.9904 446.175 17 436.976 17 425.281V20.719Z" fill="#716ABC"/>
    <path d="M0 32.4268C0 20.8394 9.81609 11.677 21.376 12.4742L145 21L268.624 12.4742C280.184 11.677 290 20.8394 290 32.4268V413.573C290 425.161 280.184 434.323 268.624 433.526L145 425L21.3761 433.526C9.8161 434.323 0 425.161 0 413.573V32.4268Z" fill="url(#pattern0)"/>
    <defs>
        <pattern id="pattern0" patternContentUnits="objectBoundingBox" width="1" height="1">
            <use xlink:href="#image0_0:1" transform="translate(0 -0.0117847) scale(0.000365364 0.000249895)"/>
        </pattern>
    </defs>
</svg>
