<svg width="108" height="62" viewBox="0 0 108 62" fill="none" xmlns="http://www.w3.org/2000/svg">
<path d="M95.7289 37.0641C95.4116 37.0641 95.1001 37.0814 94.7885 37.1045C94.7914 37.0064 94.7914 36.9083 94.7914 36.8131C94.7914 27.3718 87.7703 19.5747 78.6635 18.3487C78.6664 18.2939 78.6722 18.2391 78.6722 18.1814C78.6722 16.0468 76.9414 14.316 74.8068 14.316C74.2731 14.316 73.7654 14.4227 73.3068 14.6189C69.0058 6.25638 60.2972 0.539062 50.25 0.539062C38.3741 0.539062 28.3644 8.52657 25.301 19.4247C24.3606 19.1304 23.3567 18.9747 22.3183 18.9747C16.7654 18.9747 12.2625 23.4747 12.2625 29.0304C12.2625 30.7237 12.6837 32.3189 13.425 33.7208C5.97981 33.8939 0 39.9776 0 47.4631C0 55.0554 6.15577 61.2112 13.751 61.2112H95.7289C102.398 61.2112 107.804 55.8054 107.804 49.1391C107.804 42.4699 102.398 37.0641 95.7289 37.0641Z" fill="white"/>
</svg>
