<svg width="130" height="75" viewBox="0 0 130 75" fill="none" xmlns="http://www.w3.org/2000/svg">
<path d="M127.133 63.4428C128.073 61.8141 128.611 59.9238 128.611 57.9045C128.611 51.7693 123.64 46.7948 117.501 46.7948C116.399 46.7948 115.335 46.9606 114.329 47.2591C114.461 46.2679 114.535 45.2582 114.535 44.2338C114.535 35.5635 109.572 28.0575 102.335 24.3948C103.329 22.2392 103.886 19.8404 103.886 17.3126C103.886 7.98266 96.3209 0.414062 86.9873 0.414062C80.1815 0.414062 74.3153 4.44156 71.6401 10.2378C69.3039 7.9016 66.076 6.45715 62.5128 6.45715C56.6098 6.45715 51.6352 10.4257 50.1024 15.835C48.5068 15.5255 46.8597 15.3633 45.1721 15.3633C30.9893 15.3633 19.4926 26.86 19.4926 41.0428C19.4926 42.9221 19.6953 44.7534 20.0786 46.5184C19.3711 46.3821 18.6451 46.3084 17.8971 46.3084C11.6256 46.3084 6.54423 51.3898 6.54423 57.6613C6.54423 59.1279 6.82429 60.5244 7.32911 61.8141C7.07117 61.7809 6.80953 61.7625 6.54423 61.7625C2.92943 61.7625 0 64.6919 0 68.3067C0 71.9178 2.92943 74.8436 6.54423 74.8436H122.759C126.371 74.8436 129.3 71.9178 129.3 68.3067C129.3 66.3722 128.464 64.6403 127.133 63.4428Z" fill="white" fill-opacity="0.44"/>
</svg>
