<svg width="183" height="422" viewBox="0 0 183 422" fill="none" xmlns="http://www.w3.org/2000/svg">
    <path d="M-145 20.4268C-145 8.83941 -135.184 -0.323029 -123.624 0.47421L0 9L123.624 0.474211C135.184 -0.323028 145 8.8394 145 20.4268V401.573C145 413.161 135.184 422.323 123.624 421.526L0 413L-123.624 421.526C-135.184 422.323 -145 413.161 -145 401.573V20.4268Z" fill="#FCD962"/>
    <path d="M84.4745 32.2445C85.9926 29.7663 89.7949 30.6786 90.0233 33.5758L90.6858 41.9779C90.7879 43.2736 91.7127 44.3561 92.9766 44.6593L101.172 46.6257C103.998 47.3037 104.305 51.2018 101.621 52.3144L93.8345 55.5408C92.6338 56.0383 91.8901 57.2524 91.9922 58.5481L92.6547 66.9502C92.8831 69.8474 89.2707 71.3443 87.383 69.1347L81.9084 62.7266C81.0642 61.7384 79.6797 61.4062 78.4791 61.9038L70.6929 65.1302C68.0081 66.2427 65.4682 63.2697 66.9863 60.7916L71.389 53.6048C72.0679 52.4965 71.956 51.0771 71.1118 50.089L65.6372 43.6809C63.7495 41.4713 65.7921 38.137 68.6181 38.815L76.8137 40.7814C78.0775 41.0846 79.3928 40.5396 80.0717 39.4313L84.4745 32.2445Z" fill="white"/>
    <path d="M48.3559 85.2797C49.874 82.8016 53.6763 83.7138 53.9048 86.611L54.0863 88.9136C54.1885 90.2092 55.1133 91.2918 56.3771 91.595L58.6231 92.1339C61.449 92.8119 61.7564 96.71 59.0716 97.8225L56.9378 98.7067C55.7371 99.2043 54.9934 100.418 55.0955 101.714L55.2771 104.017C55.5055 106.914 51.8931 108.411 50.0054 106.201L48.5051 104.445C47.6609 103.457 46.2764 103.125 45.0758 103.622L42.942 104.506C40.2572 105.619 37.7173 102.646 39.2354 100.168L40.442 98.1982C41.1209 97.0899 41.009 95.6705 40.1648 94.6824L38.6645 92.9263C36.7768 90.7167 38.8194 87.3824 41.6453 88.0604L43.8913 88.5993C45.1551 88.9025 46.4704 88.3575 47.1494 87.2492L48.3559 85.2797Z" fill="white"/>
    <path d="M72.2359 334.686C71.9124 331.798 75.4737 330.183 77.433 332.33L88.1367 344.056C89.0129 345.016 90.4076 345.302 91.5912 344.765L106.051 338.209C108.698 337.009 111.334 339.897 109.898 342.424L102.054 356.227C101.411 357.357 101.57 358.772 102.446 359.732L113.15 371.458C115.109 373.604 113.177 377.004 110.33 376.419L94.7787 373.224C93.5056 372.962 92.2089 373.55 91.5668 374.68L83.7224 388.484C82.2865 391.01 78.4563 390.223 78.1328 387.335L76.3656 371.557C76.2209 370.266 75.2611 369.214 73.988 368.953L58.4362 365.758C55.5895 365.173 55.1542 361.287 57.801 360.087L72.2606 353.53C73.4443 352.994 74.1478 351.756 74.0031 350.464L72.2359 334.686Z" fill="white"/>
    <circle cx="145" cy="211" r="38" fill="white"/>
</svg>
