<svg width="214" height="422" viewBox="0 0 214 422" fill="none" xmlns="http://www.w3.org/2000/svg">
    <path d="M69 20.4268C69 8.83941 78.8161 -0.323029 90.376 0.47421L214 9L337.624 0.474211C349.184 -0.323028 359 8.8394 359 20.4268V401.573C359 413.161 349.184 422.323 337.624 421.526L214 413L90.3761 421.526C78.8161 422.323 69 413.161 69 401.573V20.4268Z" fill="#95D3E4"/>
    <path d="M180.505 48.0998C180.181 45.2117 183.742 43.5969 185.702 45.7433L187.407 47.6115C188.283 48.5714 189.678 48.8579 190.862 48.3212L193.165 47.2766C195.812 46.0765 198.448 48.9645 197.012 51.4911L195.763 53.6902C195.12 54.8202 195.279 56.2351 196.155 57.195L197.86 59.0632C199.82 61.2095 197.888 64.6092 195.041 64.0243L192.563 63.5153C191.29 63.2538 189.994 63.8417 189.351 64.9717L188.102 67.1708C186.666 69.6975 182.836 68.9106 182.512 66.0225L182.231 63.5088C182.086 62.2172 181.126 61.1656 179.853 60.9041L177.375 60.3951C174.529 59.8103 174.093 55.9243 176.74 54.7242L179.044 53.6797C180.227 53.143 180.931 51.9051 180.786 50.6135L180.505 48.0998Z" fill="white"/>
    <path d="M106.25 381.643C108.032 379.348 111.711 380.675 111.617 383.579L111.536 386.107C111.495 387.406 112.294 388.584 113.517 389.026L115.896 389.884C118.63 390.87 118.504 394.778 115.713 395.587L113.284 396.291C112.035 396.653 111.162 397.778 111.12 399.077L111.039 401.605C110.946 404.509 107.19 405.598 105.558 403.193L104.138 401.1C103.408 400.025 102.069 399.542 100.821 399.903L98.3911 400.607C95.5998 401.416 93.4041 398.181 95.1868 395.886L96.7384 393.888C97.5356 392.862 97.5813 391.439 96.8515 390.363L95.4311 388.27C93.7992 385.866 96.1978 382.778 98.9315 383.764L101.311 384.622C102.533 385.063 103.901 384.667 104.698 383.64L106.25 381.643Z" fill="white"/>
    <circle cx="46" cy="158" r="46" fill="white"/>
    <circle cx="62" cy="287.001" r="36.0899" transform="rotate(-28.7505 62 287.001)" fill="white"/>
    <path d="M100.022 18.1954C100.297 15.3022 104.113 14.4503 105.592 16.9522L109.971 24.3625C110.632 25.4814 111.939 26.0472 113.207 25.764L121.608 23.8888C124.445 23.2556 126.434 26.6219 124.512 28.8013L118.817 35.2564C117.958 36.231 117.823 37.6485 118.484 38.7673L122.864 46.1776C124.343 48.6795 121.756 51.6119 119.089 50.4569L111.19 47.0361C109.998 46.5196 108.608 46.8298 107.748 47.8044L102.054 54.2595C100.132 56.4389 96.5433 54.8849 96.8177 51.9917L97.6302 43.4225C97.7529 42.1286 97.0285 40.9029 95.8358 40.3864L87.9371 36.9655C85.2703 35.8106 85.6394 31.9178 88.4757 31.2847L96.8767 29.4094C98.1451 29.1262 99.087 28.0585 99.2097 26.7646L100.022 18.1954Z" fill="white"/>
</svg>
