<svg width="282" height="210" viewBox="0 0 282 210" fill="none" xmlns="http://www.w3.org/2000/svg">
<path d="M328.847 126.332C327.757 126.332 326.686 126.391 325.616 126.47C325.626 126.133 325.626 125.796 325.626 125.469C325.626 93.0367 301.507 66.2521 270.224 62.0407C270.234 61.8524 270.253 61.6642 270.253 61.466C270.253 54.1332 264.308 48.1876 256.975 48.1876C255.142 48.1876 253.398 48.5543 251.822 49.2281C237.048 20.5014 207.132 0.861328 172.618 0.861328C131.822 0.861328 97.4371 28.2999 86.9136 65.7368C83.6832 64.7261 80.2348 64.191 76.6674 64.191C57.5922 64.191 42.124 79.6493 42.124 98.7344C42.124 104.551 43.5707 110.031 46.1174 114.847C20.5418 115.441 0 136.34 0 162.054C0 188.135 21.1462 209.281 47.2371 209.281H328.847C351.757 209.281 370.326 190.712 370.326 167.811C370.326 144.901 351.757 126.332 328.847 126.332Z" fill="#B7D4FF"/>
</svg>
