<svg width="1310" height="1100" viewBox="0 0 1310 1100" fill="none" xmlns="http://www.w3.org/2000/svg">
    <path fill-rule="evenodd" clip-rule="evenodd" d="M1089.45 1047.69C1054.78 1032.92 1027.58 1002.49 1020.17 965.55C1013.15 930.548 1031.97 897.77 1053.7 869.458C1075.2 841.457 1102 816.431 1137.16 813.156C1175.2 809.614 1213.47 823.681 1238.88 852.214C1265.18 881.748 1277.97 922.481 1268.76 960.922C1259.89 997.939 1228.27 1023.03 1194 1039.61C1160.9 1055.63 1123.29 1062.11 1089.45 1047.69Z" fill="white" fill-opacity="0.54"/>
    <path fill-rule="evenodd" clip-rule="evenodd" d="M1034.86 975.423C1018.02 980.587 999.316 982.472 984.725 972.611C969.656 962.426 961.159 944.245 961.833 926.069C962.451 909.403 974.924 896.761 987.925 886.322C1000.03 876.605 1014.28 869.478 1029.66 871.608C1045.79 873.844 1060.05 883.375 1068.25 897.454C1076.78 912.112 1079.42 930.02 1072.74 945.61C1066.08 961.154 1051.02 970.465 1034.86 975.423Z" fill="white"/>
    <path fill-rule="evenodd" clip-rule="evenodd" d="M441.73 291.582C427.874 359.336 383.126 419.386 319.429 446.241C259.068 471.689 193.242 449.869 134.374 421.164C76.1517 392.774 21.3379 353.761 2.56468 291.735C-17.7437 224.636 -6.47367 150.68 35.5162 94.5364C78.9789 36.424 147.531 -1.48368 220.019 0.984067C289.822 3.3604 346.519 51.0256 388.894 106.567C429.814 160.202 455.252 225.462 441.73 291.582Z" fill="white" fill-opacity="0.54"/>
    <path fill-rule="evenodd" clip-rule="evenodd" d="M331.798 416.218C347.251 444.592 357.494 477.533 345.11 507.38C332.32 538.204 302.746 560.144 269.818 565.592C239.628 570.588 212.327 552.794 188.795 533.245C166.891 515.05 148.852 492.025 147.049 463.606C145.158 433.782 157.068 404.646 179.377 384.75C202.605 364.035 233.837 352.735 264.315 359.027C294.7 365.3 316.962 388.976 331.798 416.218Z" fill="white"/>
    <path d="M840.656 1016.51C842.08 1014.04 842.895 1011.18 842.895 1008.12C842.895 998.823 835.362 991.285 826.06 991.285C824.39 991.285 822.776 991.536 821.252 991.988C821.453 990.486 821.565 988.956 821.565 987.404C821.565 974.265 814.043 962.89 803.076 957.34C804.584 954.073 805.427 950.438 805.427 946.608C805.427 932.469 793.963 921 779.819 921C769.506 921 760.616 927.103 756.562 935.887C753.022 932.346 748.131 930.158 742.731 930.158C733.786 930.158 726.247 936.171 723.924 944.369C721.507 943.9 719.011 943.654 716.453 943.654C694.961 943.654 677.539 961.076 677.539 982.568C677.539 985.416 677.846 988.191 678.427 990.866C677.355 990.659 676.255 990.548 675.121 990.548C665.617 990.548 657.917 998.248 657.917 1007.75C657.917 1009.97 658.341 1012.09 659.106 1014.04C658.716 1013.99 658.319 1013.97 657.917 1013.97C652.439 1013.97 648 1018.41 648 1023.88C648 1029.36 652.439 1033.79 657.917 1033.79H834.028C839.5 1033.79 843.939 1029.36 843.939 1023.88C843.939 1020.95 842.672 1018.33 840.656 1016.51Z" fill="#B7D4FF" fill-opacity="0.4"/>
    <path d="M325.042 889.557C327.599 885.124 329.064 879.978 329.064 874.482C329.064 857.783 315.534 844.243 298.824 844.243C295.826 844.243 292.927 844.694 290.189 845.507C290.55 842.809 290.751 840.06 290.751 837.272C290.751 813.673 277.241 793.242 257.543 783.273C260.251 777.405 261.765 770.876 261.765 763.996C261.765 738.601 241.174 718 215.769 718C197.244 718 181.277 728.962 173.996 744.739C167.637 738.38 158.851 734.449 149.152 734.449C133.085 734.449 119.545 745.25 115.373 759.974C111.03 759.131 106.547 758.69 101.953 758.69C63.3491 758.69 32.0567 789.983 32.0567 828.587C32.0567 833.702 32.6084 838.686 33.6514 843.491C31.7257 843.12 29.7499 842.919 27.7139 842.919C10.6435 842.919 -3.18739 856.75 -3.18739 873.82C-3.18739 877.812 -2.42509 881.613 -1.05103 885.124C-1.75311 885.033 -2.46526 884.983 -3.18739 884.983C-13.0264 884.983 -21 892.957 -21 902.796C-21 912.625 -13.0264 920.588 -3.18739 920.588H313.137C322.966 920.588 330.939 912.625 330.939 902.796C330.939 897.53 328.663 892.816 325.042 889.557Z" fill="#B7D4FF" fill-opacity="0.4"/>
</svg>
