<svg width="40" height="41" viewBox="0 0 40 41" fill="none" xmlns="http://www.w3.org/2000/svg">
<path d="M14.0222 3.19537C14.2966 0.302174 18.1129 -0.549712 19.5915 1.95218L23.9711 9.36247C24.6323 10.4814 25.9388 11.0472 27.2073 10.764L35.6083 8.88876C38.4446 8.25562 40.4341 11.6219 38.5116 13.8013L32.8174 20.2564C31.9576 21.231 31.8232 22.6485 32.4844 23.7673L36.864 31.1776C38.3426 33.6795 35.7559 36.6119 33.0891 35.4569L25.1903 32.0361C23.9976 31.5196 22.6081 31.8298 21.7483 32.8044L16.054 39.2595C14.1315 41.4389 10.5433 39.8849 10.8177 36.9917L11.6302 28.4225C11.7529 27.1286 11.0285 25.9029 9.83584 25.3864L1.93707 21.9655C-0.729749 20.8106 -0.360639 16.9178 2.47572 16.2847L10.8767 14.4094C12.1451 14.1262 13.087 13.0585 13.2097 11.7646L14.0222 3.19537Z" fill="white"/>
</svg>
