<svg width="189" height="742" viewBox="0 0 189 742" fill="none" xmlns="http://www.w3.org/2000/svg">
    <path fill-rule="evenodd" clip-rule="evenodd" d="M129.333 649.227C83.8003 708.456 11.9195 745.578 -62.6445 741.497C-133.302 737.629 -186.888 685.276 -230.458 629.534C-273.551 574.402 -308.304 510.569 -297.166 441.454C-285.118 366.686 -239.16 300.211 -171.808 265.576C-102.093 229.727 -17.5814 225.375 51.6354 262.09C118.288 297.445 150.774 370.571 165.624 444.563C179.964 516.016 173.767 591.427 129.333 649.227Z" fill="white" fill-opacity="0.54"/>
    <path fill-rule="evenodd" clip-rule="evenodd" d="M75.7736 199.679C69.8527 165.283 56.4569 130.508 25.9624 113.518C-5.53071 95.9717 -45.2909 97.2011 -76.8419 114.651C-105.769 130.649 -116.977 164.021 -123.815 196.354C-130.181 226.449 -130.036 258.047 -112.519 283.333C-94.1356 309.871 -64.5189 326.576 -32.2841 328.484C1.27845 330.47 35.3141 319.115 56.9207 293.36C78.4626 267.682 81.4586 232.704 75.7736 199.679Z" fill="white"/>
</svg>
