<svg width="403" height="892" viewBox="0 0 403 892" fill="none" xmlns="http://www.w3.org/2000/svg">
    <path fill-rule="evenodd" clip-rule="evenodd" d="M627.333 799.227C581.8 858.456 509.92 895.578 435.355 891.497C364.698 887.629 311.112 835.276 267.542 779.534C224.449 724.402 189.696 660.569 200.834 591.454C212.882 516.686 258.84 450.211 326.192 415.576C395.907 379.727 480.419 375.375 549.635 412.09C616.288 447.445 648.774 520.571 663.624 594.563C677.964 666.016 671.767 741.427 627.333 799.227Z" fill="white" fill-opacity="0.54"/>
    <path fill-rule="evenodd" clip-rule="evenodd" d="M264.627 123.866C269 163.393 255.107 204.155 224.985 230.094C196.441 254.673 156.563 254.347 119.279 249.026C82.4041 243.763 45.5198 232.085 24.2992 201.45C1.34328 168.311 -5.53991 125.846 7.53332 87.7092C21.0651 48.2344 51.894 15.3899 92.0019 3.94831C130.624 -7.06944 170.066 9.01214 203.059 31.9316C234.92 54.0645 260.359 85.2921 264.627 123.866Z" fill="white" fill-opacity="0.54"/>
    <path fill-rule="evenodd" clip-rule="evenodd" d="M573.774 349.679C567.853 315.283 554.457 280.508 523.962 263.518C492.469 245.972 452.709 247.201 421.158 264.651C392.231 280.649 381.023 314.021 374.185 346.354C367.819 376.449 367.964 408.047 385.481 433.333C403.864 459.871 433.481 476.576 465.716 478.484C499.279 480.47 533.314 469.115 554.921 443.36C576.463 417.682 579.459 382.704 573.774 349.679Z" fill="white"/>
</svg>
