<svg width="306" height="439" viewBox="0 0 306 439" fill="none" xmlns="http://www.w3.org/2000/svg">
<path fill-rule="evenodd" clip-rule="evenodd" d="M356.085 370.727C303.78 385.035 245.922 375.004 204.573 339.958C165.389 306.748 157.336 252.971 156.563 201.623C155.799 150.837 163.673 98.6738 200.413 63.5697C240.157 25.5948 295.884 7.28121 350.032 16.7671C406.08 26.5856 456.881 61.1124 480.832 112.694C503.896 162.366 490.636 218.911 466.793 268.229C443.769 315.853 407.128 356.765 356.085 370.727Z" fill="white" fill-opacity="0.54"/>
<path fill-rule="evenodd" clip-rule="evenodd" d="M229.955 337.976C215.581 358.836 196.165 377.671 170.9 379.58C144.806 381.552 118.983 368.635 103.507 347.531C89.3191 328.182 92.0955 302.781 97.4346 279.394C102.404 257.626 112.121 236.851 131.362 225.523C151.555 213.636 176.156 211.647 197.976 220.205C220.695 229.116 239.664 246.961 246.058 270.51C252.433 293.988 243.757 317.947 229.955 337.976Z" fill="white"/>
</svg>
