<svg width="213" height="524" viewBox="0 0 213 524" fill="none" xmlns="http://www.w3.org/2000/svg">
<path fill-rule="evenodd" clip-rule="evenodd" d="M158.794 281.794C144.236 334.03 105.938 378.544 54.6411 396.053C6.03116 412.644 -44.2593 391.963 -88.7291 366.279C-132.712 340.877 -173.445 307.352 -184.724 257.806C-196.925 204.207 -184.05 146.978 -148.124 105.369C-110.938 62.3001 -55.2369 36.4124 1.32664 42.3218C55.7949 48.0124 97.5258 88.4078 127.622 134.177C156.685 178.376 173 230.818 158.794 281.794Z" fill="white" fill-opacity="0.54"/>
<path fill-rule="evenodd" clip-rule="evenodd" d="M65.9636 373.249C76.4928 396.291 82.6969 422.62 71.3715 445.286C59.6752 468.694 35.3383 484.231 9.28335 486.685C-14.6046 488.935 -34.9824 473.519 -52.3158 456.936C-68.4498 441.501 -81.2962 422.501 -81.1459 400.174C-80.9882 376.742 -70.0724 354.606 -51.5305 340.268C-32.2249 325.34 -7.17515 318.216 16.3182 324.81C39.7413 331.385 55.8539 351.126 65.9636 373.249Z" fill="white"/>
</svg>
