<svg width="233" height="807" viewBox="0 0 233 807" fill="none" xmlns="http://www.w3.org/2000/svg">
<path fill-rule="evenodd" clip-rule="evenodd" d="M230.881 323.26C233.115 417.425 191.993 510.768 115.609 565.813C43.2266 617.974 -50.8038 609.048 -137.693 588.864C-223.629 568.902 -308.275 533.8 -352.082 457.173C-399.471 374.28 -407.027 272.669 -368.377 185.352C-328.372 94.9732 -248.908 23.7775 -151.926 4.98351C-58.5368 -13.1143 31.2428 32.9009 104.408 93.7321C175.061 152.476 228.7 231.366 230.881 323.26Z" fill="white" fill-opacity="0.54"/>
<path fill-rule="evenodd" clip-rule="evenodd" d="M122.889 522.192C152.042 555.154 175.67 595.766 168.317 639.16C160.722 683.974 128.141 722.104 86.0866 739.362C47.53 755.186 5.86903 739.876 -31.3227 721.089C-65.9407 703.603 -96.8993 678.529 -107.944 641.351C-119.536 602.333 -112.595 560.028 -89.0365 526.824C-64.5076 492.252 -26.4862 467.741 15.8891 466.814C58.1377 465.891 94.8984 490.544 122.889 522.192Z" fill="white"/>
</svg>
