<svg width="214" height="854" viewBox="0 0 214 854" fill="none" xmlns="http://www.w3.org/2000/svg">
    <path fill-rule="evenodd" clip-rule="evenodd" d="M647.881 572.26C650.115 666.425 608.993 759.768 532.609 814.813C460.227 866.974 366.196 858.048 279.307 837.864C193.371 817.902 108.725 782.8 64.9181 706.173C17.5286 623.28 9.97308 521.669 48.6226 434.352C88.6278 343.973 168.092 272.777 265.074 253.984C358.463 235.886 448.243 281.901 521.408 342.732C592.061 401.476 645.7 480.366 647.881 572.26Z" fill="white" fill-opacity="0.54"/>
    <path fill-rule="evenodd" clip-rule="evenodd" d="M282.332 95.6422C249.285 66.5867 208.603 43.0777 165.231 50.5588C120.439 58.2849 82.4056 90.9779 65.2706 133.083C49.5608 171.686 64.9926 213.302 83.8886 250.438C101.477 285.004 126.642 315.889 163.852 326.825C202.903 338.302 245.188 331.237 278.323 307.581C312.823 282.95 337.222 244.857 338.024 202.479C338.823 160.228 314.063 123.54 282.332 95.6422Z" fill="white"/>
</svg>
