<svg width="345" height="1231" viewBox="0 0 345 1231" fill="none" xmlns="http://www.w3.org/2000/svg">
    <path d="M95.7289 37.0641C95.4116 37.0641 95.1001 37.0814 94.7885 37.1045C94.7914 37.0064 94.7914 36.9083 94.7914 36.8131C94.7914 27.3718 87.7703 19.5747 78.6635 18.3487C78.6664 18.2939 78.6722 18.2391 78.6722 18.1814C78.6722 16.0468 76.9414 14.316 74.8068 14.316C74.2731 14.316 73.7654 14.4227 73.3068 14.6189C69.0058 6.25638 60.2972 0.539062 50.25 0.539062C38.3741 0.539062 28.3644 8.52657 25.301 19.4247C24.3606 19.1304 23.3567 18.9747 22.3183 18.9747C16.7654 18.9747 12.2625 23.4747 12.2625 29.0304C12.2625 30.7237 12.6837 32.3189 13.425 33.7208C5.97981 33.8939 0 39.9776 0 47.4631C0 55.0554 6.15577 61.2112 13.751 61.2112H95.7289C102.398 61.2112 107.804 55.8054 107.804 49.1391C107.804 42.4699 102.398 37.0641 95.7289 37.0641Z" fill="white"/>
    <path d="M161.52 1139.12C162.128 1139.12 162.725 1139.16 163.322 1139.2C163.316 1139.01 163.316 1138.82 163.316 1138.64C163.316 1120.55 176.774 1105.6 194.228 1103.25C194.223 1103.15 194.212 1103.04 194.212 1102.93C194.212 1098.84 197.529 1095.52 201.62 1095.52C202.643 1095.52 203.616 1095.73 204.495 1096.1C212.739 1080.08 229.43 1069.12 248.687 1069.12C271.45 1069.12 290.635 1084.43 296.506 1105.31C298.309 1104.75 300.233 1104.45 302.223 1104.45C312.866 1104.45 321.497 1113.08 321.497 1123.73C321.497 1126.97 320.69 1130.03 319.269 1132.72C333.539 1133.05 345 1144.71 345 1159.05C345 1173.61 333.201 1185.41 318.644 1185.41H161.52C148.737 1185.41 138.376 1175.04 138.376 1162.27C138.376 1149.48 148.737 1139.12 161.52 1139.12Z" fill="white"/>
</svg>
