<svg width="431" height="1165" viewBox="0 0 431 1165" fill="none" xmlns="http://www.w3.org/2000/svg">
    <path d="M368.684 70.0749C368.314 70.0749 367.95 70.0951 367.587 70.1221C367.59 70.0076 367.59 69.8932 367.59 69.7821C367.59 58.7672 359.399 49.6706 348.774 48.2403C348.777 48.1764 348.784 48.1124 348.784 48.0451C348.784 45.5547 346.765 43.5355 344.275 43.5355C343.652 43.5355 343.06 43.66 342.525 43.8889C337.507 34.1326 327.347 27.4624 315.625 27.4624C301.77 27.4624 290.092 36.7812 286.518 49.4956C285.421 49.1523 284.25 48.9706 283.038 48.9706C276.56 48.9706 271.306 54.2206 271.306 60.7023C271.306 62.6778 271.798 64.5389 272.663 66.1744C263.976 66.3764 257 73.474 257 82.2072C257 91.0648 264.182 98.2466 273.043 98.2466H368.684C376.465 98.2466 382.771 91.9398 382.771 84.1624C382.771 76.3817 376.465 70.0749 368.684 70.0749Z" fill="white"/>
    <path fill-rule="evenodd" clip-rule="evenodd" d="M787.595 777.305C733.322 854.289 644.706 904.797 550.563 903.54C461.352 902.349 391.122 839.19 333.332 771.239C276.175 704.033 229.07 625.432 239.5 537.785C250.783 442.97 305.214 356.836 388.256 309.697C474.21 260.905 580.444 251.02 669.551 293.666C755.357 334.732 800.089 425.158 822.65 517.594C844.437 606.859 840.559 702.178 787.595 777.305Z" fill="white" fill-opacity="0.54"/>
    <path fill-rule="evenodd" clip-rule="evenodd" d="M582.385 872.829C586.18 916.669 580.982 963.367 549.237 993.851C516.452 1025.33 467.572 1036.57 423.509 1025.39C383.111 1015.15 358.755 978.044 340.061 940.805C322.66 906.144 312.717 867.566 325.98 831.12C339.899 792.871 370.665 763.015 409.363 750.366C449.655 737.195 494.796 740.141 529.392 764.628C563.885 789.042 578.741 830.736 582.385 872.829Z" fill="white"/>
</svg>
