<svg width="17" height="18" viewBox="0 0 17 18" fill="none" xmlns="http://www.w3.org/2000/svg">
<path d="M7.11304 2.02656C8.56386 -0.341725 12.1976 0.530122 12.4159 3.29888C12.5136 4.53711 13.3974 5.57165 14.6052 5.86143C17.3059 6.50941 17.5996 10.2347 15.0338 11.298C13.8864 11.7734 13.1756 12.9337 13.2732 14.1719C13.4915 16.9407 10.0393 18.3712 8.23522 16.2596C7.42843 15.3152 6.10531 14.9978 4.95785 15.4732C2.39207 16.5364 -0.0352583 13.6952 1.41557 11.3269C2.0644 10.2678 1.95745 8.91134 1.15066 7.96698C-0.653388 5.85532 1.29869 2.66881 3.99939 3.31679C5.20718 3.60658 6.46421 3.08569 7.11304 2.02656Z" fill="#716ABC"/>
</svg>
