<svg width="98" height="293" viewBox="0 0 98 293" fill="none" xmlns="http://www.w3.org/2000/svg">
<path d="M0.617327 292.81C0.24123 292.81 -0.0760236 292.443 0.0160818 292.059C0.116715 291.635 0.158504 291.07 0.371711 290.689C0.478314 290.498 0.683847 290.359 0.902171 290.359C0.949076 290.359 0.995982 290.365 1.04374 290.379C1.36184 290.469 1.57505 290.781 1.49574 291.114C1.38061 291.597 1.35758 292.65 0.752071 292.793C0.706871 292.804 0.661674 292.81 0.617327 292.81Z" fill="#0EBAB6"/>
<path d="M84.5858 201.954C84.0084 201.591 82.5868 201.934 80.5357 202.279C76.959 202.879 71.4702 203.478 65.2207 200.329C55.3884 195.376 54.1117 189.163 52.4018 188.085C50.6911 187.01 44.2659 196.435 36.8369 197.154C32.7544 197.549 28.9244 197.228 26.0896 196.906C23.7665 196.643 22.1111 196.378 21.5338 196.51C20.1905 197.81 22.5299 206.578 15.3806 214.949C8.23135 223.322 1.89144 223.085 0.439929 224.489C-1.01244 225.895 6.78667 234.927 7.63949 242.342C8.61598 250.822 2.24707 258.54 3.01632 259.606C4.32114 261.416 16.5217 260.073 21.1542 265.28C27.3696 272.265 25.3664 282.92 26.8417 283.159C27.7185 283.3 29.4949 281.823 32.2956 280.346C35.3854 278.715 39.722 277.086 45.4718 277.631C56.4323 278.671 59.8803 283.996 61.8648 284.376C63.8502 284.758 66.4087 273.641 73.0684 270.27C79.7273 266.899 86.4697 266.045 87.5579 265.306C88.3365 263.607 82.9697 256.29 86.5865 245.892C90.2025 235.493 96.1945 233.411 97.0362 231.574C97.878 229.736 87.6892 224.607 85.9981 217.337C84.3078 210.067 85.0813 203.315 84.6225 202.083L84.5858 201.954Z" fill="#F6874A"/>
<path d="M61.9654 284.383C61.9509 284.383 61.9364 284.383 61.9219 284.382C61.9364 284.383 61.9509 284.383 61.9654 284.383C63.6754 284.383 65.8458 276.256 70.6651 271.938C70.666 271.939 70.6668 271.939 70.6668 271.94C65.8475 276.258 63.6762 284.384 61.9654 284.383ZM61.8776 284.376C61.8733 284.376 61.8691 284.375 61.8648 284.374C59.8803 283.993 56.4323 278.668 45.4718 277.629C44.6982 277.556 43.9512 277.521 43.2288 277.521C38.5784 277.521 34.97 278.932 32.2956 280.343C29.6211 281.754 27.8796 283.165 26.9654 283.165C26.9219 283.165 26.881 283.162 26.8417 283.156C25.3664 282.917 27.3696 272.262 21.1542 265.277C16.5217 260.07 4.32114 261.413 3.01632 259.604C2.97197 259.542 2.9515 259.459 2.9515 259.354C2.9515 259.459 2.97197 259.542 3.01632 259.604C4.32114 261.413 16.5217 260.07 21.1542 265.277C27.3696 272.262 25.3664 282.917 26.8417 283.156C26.881 283.162 26.9219 283.165 26.9654 283.165C27.8796 283.165 29.6211 281.754 32.2956 280.343C34.97 278.932 38.5784 277.521 43.2288 277.521C43.9512 277.521 44.6982 277.556 45.4718 277.629C56.4323 278.668 59.8803 283.993 61.8648 284.374C61.8691 284.375 61.8733 284.376 61.8776 284.376Z" fill="#FDDAC6"/>
<path d="M61.9654 284.387C61.951 284.387 61.9364 284.387 61.922 284.385C61.9066 284.384 61.8921 284.383 61.8776 284.38C61.8733 284.379 61.8691 284.378 61.8648 284.378C59.8803 283.997 56.4323 278.672 45.4718 277.633C44.6983 277.559 43.9512 277.525 43.2288 277.525C38.5784 277.525 34.9701 278.936 32.2956 280.347C29.6211 281.758 27.8797 283.169 26.9654 283.169C26.9219 283.169 26.881 283.166 26.8418 283.16C25.3664 282.921 27.3697 272.266 21.1543 265.281C16.5217 260.074 4.32117 261.417 3.01634 259.607C2.97199 259.546 2.95153 259.462 2.95153 259.358C2.95664 257.779 7.74441 251.409 7.74185 244.143C7.74185 243.548 7.70944 242.948 7.63951 242.343C6.85918 235.558 0.263413 227.419 0.260002 225.009C0.260002 224.785 0.31629 224.611 0.43995 224.49C1.89146 223.086 8.23137 223.324 15.3806 214.951C22.5299 206.579 20.1906 197.811 21.5338 196.511H21.5346C21.66 196.511 24.8206 201.499 29.5162 208.942C29.2254 209.142 28.9372 209.346 28.6464 209.556C28.3103 209.798 27.9828 210.041 27.6596 210.287C15.5111 219.546 12.1791 231.715 14.4476 242.811C17.6688 258.578 32.1992 272.179 48.8131 272.18C54.6669 272.18 60.7775 270.492 66.7455 266.615C68.3301 268.879 69.6639 270.7 70.6651 271.942C65.8458 276.259 63.6754 284.387 61.9654 284.387Z" fill="#F47B41"/>
<path d="M55.4857 199.163C54.7565 199.163 53.8354 198.411 53.4073 198.013C52.3268 197.007 51.3921 195.844 50.6697 194.555C50.1708 193.666 50.8326 192.941 51.6079 192.941C51.8688 192.941 52.1434 193.024 52.3899 193.21C52.8334 193.544 53.1097 194.048 53.4039 194.518C54.0478 195.549 57.3184 197.374 56.1423 198.852C55.9641 199.074 55.7364 199.163 55.4857 199.163Z" fill="#F79452"/>
<path d="M82.1382 217.196C81.699 217.196 81.3681 216.891 81.2095 216.48C80.0727 213.554 79.9823 210.051 80.0539 206.954C80.0693 206.242 80.6296 205.887 81.1805 205.887C81.7331 205.887 82.2772 206.242 82.2619 206.954C82.1945 210.097 82.8188 213.106 83.1429 216.218C83.1949 216.712 82.7309 217.118 82.29 217.185C82.238 217.193 82.1885 217.196 82.1382 217.196Z" fill="#F79452"/>
<path d="M85.3704 224.054C84.2728 224.053 82.8947 222.101 82.8026 220.672C82.7616 220.029 82.9817 219.491 83.6085 219.288C83.733 219.248 83.849 219.229 83.9565 219.229C84.7411 219.229 85.0933 220.212 85.2647 220.879C85.7116 221.664 86.9507 223.06 85.9 223.871C85.7371 223.997 85.558 224.054 85.3704 224.054Z" fill="#F79452"/>
<path d="M83.3859 263.134C83.02 263.134 82.6363 262.961 82.4819 262.624C81.4287 260.316 81.0782 257.669 81.1728 255.148C81.1967 254.518 81.6692 254.052 82.2977 254.023C82.3105 254.023 82.3241 254.022 82.3369 254.022C82.9126 254.022 83.4439 254.573 83.4217 255.148C83.3322 257.428 83.7919 259.631 84.3999 261.816C84.5432 262.33 84.2652 262.846 83.7927 263.054C83.6699 263.108 83.5292 263.134 83.3859 263.134Z" fill="#F79452"/>
<path d="M67.3331 266.223C105.595 240.397 69.4183 180.149 28.6463 209.552C-8.76204 236.531 32.0559 290.034 67.3331 266.223Z" fill="#FFCD4E"/>
<path d="M14.4476 242.807C12.1791 231.711 15.5111 219.541 27.6596 210.283C15.5137 219.54 12.1808 231.71 14.4476 242.807Z" fill="#F4753A"/>
<path d="M48.8089 272.168C32.1975 272.168 17.6696 258.573 14.4476 242.811C12.1808 231.715 15.5136 219.544 27.6596 210.287C27.982 210.042 28.3112 209.798 28.6463 209.556C28.99 209.308 29.332 209.083 29.6757 208.848C38.5246 230.052 50.552 249.848 65.1098 267.608C59.6645 270.773 54.1297 272.168 48.8089 272.168ZM30.1959 235.412C23.7861 235.412 18.3663 244.187 24.557 249.964C26.1842 251.482 28.0434 252.129 29.8625 252.129C36.1128 252.129 41.8822 244.483 36.054 238.216C34.2119 236.235 32.1574 235.412 30.1959 235.412Z" fill="#FEBE3F"/>
<path d="M63.0323 212.803C62.8745 212.803 62.7108 212.771 62.5436 212.703C60.0986 211.7 57.8207 210.496 55.2315 209.862C53.3851 209.41 51.5072 209.198 49.6182 209.198C48.947 209.198 48.2741 209.225 47.6013 209.277C47.5663 209.28 47.5305 209.281 47.4955 209.281C46.5898 209.281 45.8427 208.38 45.8427 207.519C45.8427 206.513 46.6546 205.835 47.6013 205.759C48.3048 205.703 49.0101 205.675 49.7154 205.675C51.8876 205.675 54.0623 205.939 56.173 206.451C58.9575 207.125 61.881 208.186 64.0839 210.057C65.1141 210.932 64.2561 212.803 63.0323 212.803Z" fill="#FCD962"/>
<path d="M70.3002 218.382C70.0997 218.382 69.8951 218.348 69.6946 218.277C68.7625 217.944 67.0867 216.786 66.2526 215.565C65.8996 215.046 65.6983 214.517 65.7691 214.035C65.891 213.213 66.6756 212.584 67.4841 212.584C67.6589 212.584 67.8355 212.614 68.0069 212.677C68.4529 212.842 68.8231 213.159 69.1829 213.47C70.1185 214.277 71.7542 215.152 71.9862 216.499C72.1713 217.573 71.286 218.382 70.3002 218.382Z" fill="#FCD962"/>
<path d="M29.8624 252.128C28.0434 252.128 26.1842 251.481 24.557 249.963C18.3663 244.186 23.7861 235.411 30.1959 235.411C32.1574 235.411 34.2119 236.233 36.054 238.215C41.8822 244.482 36.1128 252.128 29.8624 252.128Z" fill="#F7945F"/>
<path d="M50.3499 244.657C46.5378 244.657 43.8275 241.441 43.6962 241.282C43.3457 240.859 43.4054 240.233 43.8284 239.882C44.2522 239.533 44.8799 239.592 45.2287 240.015C45.256 240.048 48.2128 243.52 51.7588 242.457C55.2955 241.399 55.5471 237.631 55.5496 237.593C55.5803 237.044 56.0477 236.622 56.5986 236.656C57.147 236.687 57.5657 237.156 57.535 237.704C57.5239 237.917 57.1879 242.907 52.3294 244.362C51.6445 244.568 50.9819 244.657 50.3499 244.657Z" fill="#361F3F"/>
<path d="M33.5868 239.466C33.1501 239.466 32.7493 239.176 32.629 238.734C32.56 238.481 30.9865 232.518 34.9581 230.808C35.8306 230.432 36.7456 230.426 37.6079 230.788C39.8295 231.719 41.0789 234.806 41.2145 235.155C41.4123 235.666 41.1582 236.241 40.6473 236.44C40.1356 236.637 39.56 236.385 39.3604 235.874C39.0747 235.143 38.0641 233.134 36.836 232.621C36.4702 232.467 36.1222 232.473 35.7453 232.634C33.3932 233.648 34.536 238.168 34.5479 238.213C34.6903 238.742 34.3773 239.288 33.8477 239.431C33.7607 239.455 33.6729 239.466 33.5868 239.466Z" fill="#361F3F"/>
<path d="M69.1343 240.19C64.5486 240.189 59.9536 236.796 61.0162 230.592C61.8273 225.86 65.1934 223.818 68.661 223.818C73.5349 223.818 78.6092 227.854 77.0699 234.128C76.0576 238.253 72.5985 240.19 69.1343 240.19Z" fill="#F89B67"/>
<path d="M55.9948 231.642C55.5292 231.642 55.1138 231.314 55.02 230.841C54.9433 230.449 54.3071 226.961 55.7159 224.91C56.2379 224.149 56.9952 223.662 57.9026 223.504C62.1693 222.753 64.0933 228.906 64.1726 229.168C64.3321 229.694 64.0353 230.247 63.5108 230.407C62.9854 230.565 62.4311 230.27 62.2699 229.746C62.2554 229.699 60.7527 225.03 58.2437 225.463C57.8608 225.529 57.5785 225.711 57.3559 226.034C56.5594 227.191 56.8084 229.619 56.9722 230.456C57.077 230.995 56.7265 231.517 56.1876 231.623L55.9948 231.642Z" fill="#361F3F"/>
<circle cx="51.1111" cy="195" r="3" fill="white"/>
<path d="M51.1111 -36L51.1111 196" stroke="white" stroke-width="2"/>
</svg>
