<svg width="40" height="41" viewBox="0 0 40 41" fill="none" xmlns="http://www.w3.org/2000/svg">
<path d="M20.4745 2.24446C21.9926 -0.233673 25.7949 0.678618 26.0233 3.5758L26.6858 11.9779C26.7879 13.2736 27.7127 14.3561 28.9766 14.6593L37.1722 16.6257C39.9981 17.3037 40.3055 21.2018 37.6207 22.3144L29.8345 25.5408C28.6338 26.0383 27.8901 27.2524 27.9922 28.5481L28.6547 36.9502C28.8831 39.8474 25.2707 41.3443 23.383 39.1347L17.9084 32.7266C17.0642 31.7384 15.6797 31.4062 14.4791 31.9038L6.69288 35.1302C4.00808 36.2427 1.46818 33.2697 2.9863 30.7916L7.389 23.6048C8.06792 22.4965 7.95601 21.0771 7.1118 20.089L1.63721 13.6809C-0.250505 11.4713 1.79211 8.13698 4.61808 8.81501L12.8137 10.7814C14.0775 11.0846 15.3928 10.5396 16.0717 9.4313L20.4745 2.24446Z" fill="#FDB53F"/>
</svg>
