<svg width="30" height="30" viewBox="0 0 30 30" fill="none" xmlns="http://www.w3.org/2000/svg">
<path d="M15.6109 6.35156C11.4314 6.35156 8.03241 9.75023 8.03088 13.9279C8.03028 15.3597 8.43089 16.7538 9.18922 17.9602L9.3693 18.2467L8.60397 21.0428L11.4715 20.2906L11.7483 20.4548C12.9115 21.1453 14.2451 21.5103 15.6048 21.511H15.6078C19.784 21.511 23.183 18.112 23.1848 13.934C23.1857 11.9093 22.3982 10.0057 20.9676 8.57364C19.537 7.14123 17.6346 6.35217 15.6109 6.35156ZM20.0678 17.1854C19.878 17.7175 18.9679 18.2032 18.5305 18.2683C18.1381 18.327 17.6413 18.3514 17.0959 18.178C16.7653 18.073 16.3409 17.9328 15.7974 17.6983C13.512 16.7118 12.0197 14.411 11.9059 14.2592C11.7921 14.1071 10.9757 13.0242 10.9757 11.9029C10.9757 10.7817 11.564 10.2308 11.773 10.0027C11.9816 9.77456 12.2286 9.71768 12.3804 9.71768C12.5322 9.71768 12.6843 9.7192 12.8169 9.72559C12.9569 9.73259 13.1445 9.67266 13.3295 10.1165C13.5193 10.5727 13.975 11.6937 14.0319 11.8077C14.0887 11.9218 14.1268 12.0547 14.0507 12.2068C13.9747 12.3586 13.937 12.4538 13.8229 12.5868C13.7088 12.7197 13.5838 12.8836 13.4813 12.9859C13.3672 13.0993 13.2486 13.2228 13.3815 13.4506C13.5144 13.6788 13.9716 14.4246 14.6487 15.0285C15.5187 15.8044 16.2527 16.045 16.4806 16.1591C16.7084 16.2732 16.8413 16.254 16.9739 16.1022C17.1069 15.9501 17.5434 15.437 17.6952 15.2091C17.847 14.9813 17.9987 15.019 18.2077 15.0951C18.4164 15.1711 19.5364 15.722 19.7642 15.8361C19.9921 15.9501 20.1439 16.007 20.2007 16.1022C20.2576 16.1971 20.2576 16.6534 20.0678 17.1854Z" fill="#39AD36"/>
<path d="M15 0C6.71581 0 0 6.71581 0 15C0 23.2842 6.71581 30 15 30C23.2842 30 30 23.2842 30 15C30 6.71581 23.2842 0 15 0ZM15.6078 23.0509C15.6075 23.0509 15.6081 23.0509 15.6078 23.0509H15.6041C14.0783 23.0503 12.5793 22.6676 11.2479 21.9412L6.41527 23.2091L7.70867 18.4851C6.91079 17.1025 6.49102 15.5342 6.49193 13.9277C6.49345 8.90138 10.5832 4.81222 15.6078 4.81222C18.0464 4.81313 20.3354 5.76249 22.0565 7.4857C23.7776 9.20861 24.7251 11.4991 24.7239 13.935C24.7218 18.9614 20.632 23.0509 15.6078 23.0509Z" fill="#39AD36"/>
</svg>
